<svg xmlns="http://www.w3.org/2000/svg" viewBox="0 0 1296.77 704.3"><defs><style>.cls-1{fill:none;stroke:#000;stroke-miterlimit:10;}.cls-2{fill:#367304;}.cls-3{fill:#337201;}.cls-4{fill:#357403;}.cls-5{fill:#337600;}.cls-6{fill:#357503;}.cls-7{fill:#367404;}.cls-8{fill:#397105;}.cls-9{fill:#347304;}.cls-10{fill:#347002;}.cls-11{fill:#377204;}.cls-12{fill:#357404;}.cls-13{fill:#347004;}.cls-14{fill:#386f04;}.cls-15{fill:#356903;}.cls-16{fill:#397006;}.cls-17{fill:#366f06;}.cls-18{fill:#377806;}.cls-19{fill:#387505;}.cls-20{fill:#387207;}.cls-21{fill:#356e00;}.cls-22{fill:#387504;}.cls-23{fill:#396a01;}.cls-24{fill:#377205;}.cls-25{fill:#357101;}.cls-26{fill:#3b6f06;}.cls-27{fill:#386c07;}.cls-28{fill:#387708;}.cls-29{fill:#346b05;}.cls-30{fill:#3a770b;}.cls-31{fill:#387305;}.cls-32{fill:#3d6806;}.cls-33{fill:#3b6907;}.cls-34{fill:#327e00;}.cls-35{fill:#357804;}.cls-36{fill:#367201;}.cls-37{fill:#397709;}.cls-38{fill:#377405;}.cls-39{fill:#3c750b;}.cls-40{fill:#ca241a;}.cls-41{fill:#307e00;}.cls-42{fill:#327701;}.cls-43{fill:#d61818;}.cls-44{fill:#38680a;}.cls-45{fill:#387f09;}.cls-46{fill:#0fa00b;}.cls-47{fill:#336602;}.cls-48{fill:#387a0a;}.cls-49{fill:#347904;}.cls-50{fill:#328200;}.cls-51{fill:#3a720b;}.cls-52{fill:#357c01;}.cls-53{fill:#189510;}.cls-54{fill:#277804;}.cls-55{fill:#2f7d18;}.cls-56{fill:#318000;}.cls-57{fill:#357405;}.cls-58{fill:#bb1b14;}.cls-59{fill:#337e00;}.cls-60{fill:#326b03;}.cls-61{fill:#376301;}.cls-62{fill:#2f6402;}.cls-63{fill:#336c0b;}.cls-64{fill:#198104;}.cls-65{fill:#37790a;}.cls-66{fill:#b52317;}.cls-67{fill:#335f00;}.cls-68{fill:#036a00;}.cls-69{fill:#336303;}.cls-70{fill:#3f6b08;}.cls-71{fill:#356d07;}.cls-72{fill:#397309;}.cls-73{fill:#17bf17;}.cls-74{fill:#18a712;}.cls-75{fill:#356d09;}.cls-76{fill:#387006;}.cls-77{fill:#008300;}.cls-78{fill:#2f5100;}.cls-79{fill:#336609;}.cls-80{fill:#c0110e;}.cls-81{fill:#287900;}.cls-82{fill:#3a7a09;}.cls-83{fill:#0cb70c;}.cls-84{fill:#346e01;}.cls-85{fill:#367d09;}.cls-86{fill:#1d5c00;}.cls-87{fill:#3e7b13;}.cls-88{fill:#2e8a00;}.cls-89{fill:#336501;}.cls-90{fill:#376709;}.cls-91{fill:#377609;}.cls-92{fill:#2d6108;}.cls-93{fill:#356507;}.cls-94{fill:#115c00;}.cls-95{fill:#c50607;}.cls-96{fill:#168a01;}.cls-97{fill:#844818;}.cls-98{fill:#3d7007;}.cls-99{fill:#37952a;}.cls-100{fill:#205500;}.cls-101{fill:#099201;}.cls-102{fill:#1c7c00;}.cls-103{fill:#387b0b;}.cls-104{fill:#578933;}.cls-105{fill:#00bd00;}.cls-106{fill:#3f7a13;}.cls-107{fill:#2c4d04;}.cls-108{fill:#3a730d;}.cls-109{fill:#255900;}.cls-110{fill:#336a07;}.cls-111{fill:#286100;}.cls-112{fill:#376912;}.cls-113{fill:#119100;}.cls-114{fill:#225b00;}.cls-115{fill:#44781c;}.cls-116{fill:#437c15;}.cls-117{fill:#3b7206;}.cls-118{fill:#7aa35b;}.cls-119{fill:#1c4e02;}.cls-120{fill:#3a7509;}.cls-121{fill:#2c4700;}.cls-122{fill:#43861a;}.cls-123{fill:#bc0c06;}.cls-124{fill:#00a000;}.cls-125{fill:#ca1d1a;}.cls-126{fill:#377105;}.cls-127{fill:#207503;}.cls-128{fill:#3d7408;}.cls-129{fill:#2f8600;}.cls-130{fill:#a71709;}.cls-131{fill:#b0180b;}.cls-132{fill:#335600;}.cls-133{fill:#c1190c;}.cls-134{fill:#2f8200;}.cls-135{fill:#3c7009;}.cls-136{fill:#991d06;}.cls-137{fill:#336301;}.cls-138{fill:#317f00;}.cls-139{fill:#972709;}.cls-140{fill:#cd0d0f;}.cls-141{fill:#265609;}.cls-142{fill:#3b7208;}.cls-143{fill:#377d05;}.cls-144{fill:#2f8700;}.cls-145{fill:#654701;}.cls-146{fill:#387307;}.cls-147{fill:#396c08;}.cls-148{fill:#a31f09;}.cls-149{fill:#c6060a;}.cls-150{fill:#318500;}.cls-151{fill:#338700;}.cls-152{fill:#a62c13;}.cls-153{fill:#10b90b;}.cls-154{fill:#3a7007;}.cls-155{fill:#2f6200;}.cls-156{fill:#397907;}.cls-157{fill:#306200;}.cls-158{fill:#a71b0a;}.cls-159{fill:#912406;}.cls-160{fill:#d90010;}.cls-161{fill:#338500;}.cls-162{fill:#345500;}.cls-163{fill:#346300;}.cls-164{fill:#db0413;}.cls-165{fill:#335601;}.cls-166{fill:#336200;}.cls-167{fill:#3d760f;}.cls-168{fill:#d2030c;}.cls-169{fill:#377103;}.cls-170{fill:#ca100e;}.cls-171{fill:#3e6d13;}.cls-172{fill:#c70d0c;}.cls-173{fill:#3b770a;}.cls-174{fill:#397308;}.cls-175{fill:#336101;}.cls-176{fill:#306400;}.cls-177{fill:#a81c0a;}.cls-178{fill:#317400;}.cls-179{fill:#326100;}.cls-180{fill:#972608;}.cls-181{fill:#3d6e0a;}.cls-182{fill:#337c00;}.cls-183{fill:#306000;}.cls-184{fill:#417111;}.cls-185{fill:#305c03;}.cls-186{fill:#3b6500;}.cls-187{fill:#1c5000;}.cls-188{fill:#158202;}.cls-189{fill:#345c01;}.cls-190{fill:#ad170a;}.cls-191{fill:#b70905;}.cls-192{fill:#2e7c00;}.cls-193{fill:#405602;}.cls-194{fill:#387205;}.cls-195{fill:#019500;}.cls-196{fill:#c20d0c;}.cls-197{fill:#345100;}.cls-198{fill:#316a00;}.cls-199{fill:#3e5406;}.cls-200{fill:#335300;}.cls-201{fill:#bf110c;}.cls-202{fill:#346803;}.cls-203{fill:#3d6e05;}.cls-204{fill:#3c6905;}.cls-205{fill:#3f6c0b;}.cls-206{fill:#335a00;}.cls-207{fill:#a02209;}.cls-208{fill:#325000;}.cls-209{fill:#345f02;}.cls-210{fill:#397805;}.cls-211{fill:#a61c0a;}.cls-212{fill:#3e710b;}.cls-213{fill:#335400;}.cls-214{fill:#942b0a;}.cls-215{fill:#3d790e;}.cls-216{fill:#2e5a00;}.cls-217{fill:#327b00;}.cls-218{fill:#b6110b;}.cls-219{fill:#b71814;}.cls-220{fill:#2e8700;}.cls-221{fill:#3a7308;}.cls-222{fill:#337801;}.cls-223{fill:#c30e0d;}.cls-224{fill:#397405;}.cls-225{fill:#1c8005;}.cls-226{fill:#b2251a;}.cls-227{fill:#9c2007;}.cls-228{fill:#296205;}.cls-229{fill:#367505;}.cls-230{fill:#982507;}.cls-231{fill:#367f06;}.cls-232{fill:#0d6c00;}.cls-233{fill:#d0060d;}.cls-234{fill:#3d6c07;}.cls-235{fill:#335f01;}.cls-236{fill:#436609;}.cls-237{fill:#b8190c;}.cls-238{fill:#308600;}.cls-239{fill:#327f01;}.cls-240{fill:#2a5a0a;}.cls-241{fill:#932d09;}.cls-242{fill:#2f8300;}.cls-243{fill:#e51c18;}.cls-244{fill:#dc1d1f;}.cls-245{fill:#ae0303;}.cls-246{fill:#345a01;}.cls-247{fill:#5d813b;}.cls-248{fill:#922b09;}.cls-249{fill:#e5201c;}.cls-250{fill:#b30c0a;}.cls-251{fill:#dd1e20;}.cls-252{fill:#ce2428;}.cls-253{fill:#3a6809;}.cls-254{fill:#437418;}.cls-255{fill:#ae1809;}.cls-256{fill:#c42524;}.cls-257{fill:#901102;}.cls-258{fill:#c61b15;}.cls-259{fill:#833f0b;}.cls-260{fill:#375901;}.cls-261{fill:#b81211;}.cls-262{fill:#c4120b;}.cls-263{fill:#e91818;}.cls-264{fill:#346f00;}.cls-265{fill:#d51d1b;}.cls-266{fill:#c11314;}.cls-267{fill:#cb0a0e;}.cls-268{fill:#e41414;}.cls-269{fill:#d51a19;}.cls-270{fill:#f9212b;}.cls-271{fill:#397401;}.cls-272{fill:#c62323;}.cls-273{fill:#ec2426;}.cls-274{fill:#f01f20;}.cls-275{fill:#c72424;}.cls-276{fill:#be2923;}.cls-277{fill:#de2727;}.cls-278{fill:#f11919;}.cls-279{fill:#b22a1c;}.cls-280{fill:#7e5516;}.cls-281{fill:#158c14;}.cls-282{fill:#278318;}.cls-283{fill:#b61f13;}.cls-284{fill:#21a71a;}.cls-285{fill:#358104;}.cls-286{fill:#771b00;}.cls-287{fill:#d9010d;}.cls-288{fill:#cb2424;}.cls-289{fill:#bd2420;}.cls-290{fill:#056200;}.cls-291{fill:#3c7b0d;}.cls-292{fill:#128c06;}.cls-293{fill:#d52220;}.cls-294{fill:#056b00;}.cls-295{fill:#1d8a16;}.cls-296{fill:#1bb11a;}.cls-297{fill:#c62020;}.cls-298{fill:#308000;}.cls-299{fill:#1c4f00;}.cls-300{fill:#19aa0e;}.cls-301{fill:#12870f;}.cls-302{fill:#79440d;}.cls-303{fill:#00a601;}.cls-304{fill:#337b02;}.cls-305{fill:#bd0c0c;}.cls-306{fill:#db2e27;}.cls-307{fill:#bc0d0c;}.cls-308{fill:#c42523;}.cls-309{fill:#c40202;}.cls-310{fill:#360;}.cls-311{fill:#cf1213;}.cls-312{fill:#c20c0b;}.cls-313{fill:#c60a09;}.cls-314{fill:#378306;}.cls-315{fill:#c82627;}.cls-316{fill:#ce1113;}.cls-317{fill:#16b910;}.cls-318{fill:#2c5a09;}.cls-319{fill:#e81e1f;}.cls-320{fill:#ae1f10;}.cls-321{fill:#821a01;}.cls-322{fill:#f31a1b;}.cls-323{fill:#e11514;}.cls-324{fill:#e43013;}.cls-325{fill:#a90a06;}.cls-326{fill:#f92627;}.cls-327{fill:#e21c1b;}.cls-328{fill:#f31e1e;}.cls-329{fill:#ca2a2b;}.cls-330{fill:#f82a2a;}.cls-331{fill:#a80a06;}.cls-332{fill:#e12616;}.cls-333{fill:#d61f1e;}.cls-334{fill:#fe3737;}.cls-335{fill:#c81515;}.cls-336{fill:#e52b2c;}.cls-337{fill:#c61011;}.cls-338{fill:#b6271d;}.cls-339{fill:#db1c1d;}.cls-340{fill:#ea1414;}.cls-341{fill:#e0191b;}.cls-342{fill:#a71b08;}.cls-343{fill:#bb1d17;}.cls-344{fill:#dc0e10;}.cls-345{fill:#128d07;}.cls-346{fill:#0a6200;}.cls-347{fill:#dd8819;}</style></defs><title>vykort2</title><g id="Layer_2" data-name="Layer 2"><g id="Layer_1-2" data-name="Layer 1"><path d="M1295.77,1V703.3H1V1H1295.77m1-1H0V704.3H1296.77V0Z"/><line class="cls-1" x1="881.72" y1="358.79" x2="1181.72" y2="358.79"/><line class="cls-1" x1="881.72" y1="411.33" x2="1181.72" y2="411.33"/><line class="cls-1" x1="881.72" y1="462.95" x2="1181.72" y2="462.95"/><line class="cls-1" x1="881.72" y1="514.7" x2="1181.72" y2="514.7"/><line class="cls-1" x1="881.72" y1="567.25" x2="1181.72" y2="567.25"/><line class="cls-1" x1="881.72" y1="618.86" x2="1181.72" y2="618.86"/><line class="cls-1" x1="756.99" y1="36.4" x2="756.99" y2="670.81"/><path class="cls-2" d="M1077.08,207.74c-.65-.89-2.06-.62-1.57-3.1.61-3.07,3.55-6,1.29-9.62-.37-.6.34-1,.64-1.55,1.29-2.17,3.33-4,2.14-7.29-.52-1.42.76-1.43,1.57-1.41,1.17,0,2-.21,1.61-1.89a1.46,1.46,0,0,1,1.51-.71,2.66,2.66,0,0,1,1.41,1c.44.6.75,1.31,1.18,1.93s1,1,1.44,1.5a2.58,2.58,0,0,1,.26,1.09c0,.58-.07,1.17-.08,1.76-.19,1.56,0,3.48-2.13,3.33-.61-.66-1.42-1-2.34-1.89.74,1.05,1.55,1.16,2.12,1.68,1,.91.46,2.25.71,3.38a11.58,11.58,0,0,0,0,3.64,4.52,4.52,0,0,1-.05,1.26c-.17.6-.41,1.17-.61,1.75-.55,1.55.64,2.15,1.24,3.07-.18,2.85,2.14,5.09,1.47,8.06a3.19,3.19,0,0,1-1.37,2.12c-1.21.49-1.76-.55-2.4-1.39a6.64,6.64,0,0,1-.77-1.75,12.81,12.81,0,0,0-.75-2.84c-.79-.14-.16.62-.37.84-.18,1.16,1,1.67.95,2.77-.52,2.19-1,4.37-3.71,3.35-1.08-2.59-3-4.82-2.59-8,2.18-.58,2.52-2.69,2.93-4.74a5.8,5.8,0,0,1,.61-1.8c0-.52.85-.87.18-1.5a3.9,3.9,0,0,0-.44.83,7.1,7.1,0,0,0-.52,2.89C1080.23,206.63,1079.75,208.77,1077.08,207.74Z"/><path class="cls-3" d="M1247.2,163.57c1.33,2.94,3.64,5.47,1.29,9.38-1.69,2.82-1.49,7.07-4.84,8.72a2,2,0,0,0-.88-.43l-.48-.09-1-.21c-.35,0-.69-.09-1-.14a3.84,3.84,0,0,1-1.58-.59c-1.17-1.11-1.28-2.71-1.49-4.27,0-1.39,1.15-2.74.13-4.19a2.64,2.64,0,0,1,.1-1.29c2.23-1.49.41-4.25,1.42-6.12.64-.56,1.46-1,1.54-2.1a3,3,0,0,0-.59-2.22,16.4,16.4,0,0,1-1.79-2.37,5,5,0,0,1-.36-1.91,4.17,4.17,0,0,1,1.11-2.88c.82-.7,1.55-.14,2.29.21a1.31,1.31,0,0,0,1.16-.2,2.93,2.93,0,0,0,.57-1.31,5.49,5.49,0,0,1,.74-2.21c1.45-1.17,2.54-1.29,2.72,1.25a13,13,0,0,0,1,6.89c.54,2-1.08,2.07-1.86,2.89-.73.63-.61,1.22.06,1.81S1246.45,163.38,1247.2,163.57Z"/><path class="cls-4" d="M1112.38,62.9c2.39.45,4.46,1.79,7.39,3.69-3.07-4.05,3.26-3.85,1.29-7.24l6.82,1.56c.73,1.79-1.15,3.24-.46,5,.94,1,2.22.55,3.26,1.05a2.52,2.52,0,0,1,.94.78A1.77,1.77,0,0,1,1131,70c-1.66-.65-.68,1.24-1.2,1.72-1.91-.25-1.68,2.27-2.85,3-.8.88-1.16,2.31-2.44,2.59a10.24,10.24,0,0,0-5.09-.07,25,25,0,0,1-2.69-1.28,16.52,16.52,0,0,1-3.8-1.83c-1.07-1.39-2.15-2.78-2-4.85.05-.87,1.36-1.48.39-2.56a4.31,4.31,0,0,1-.78-.74,2.08,2.08,0,0,1-.25-1.15A2.87,2.87,0,0,1,1112.38,62.9Z"/><path class="cls-5" d="M1077.45,143.65c-.54-1.71,1.09-4.55-1.93-5,3.16-1.88-2.19-5.63,1.38-7.82,1.68-1,.72-4.37,2.16-6.32.68-.92,1-2.22,2.08-2.83.82-.51,1.44,0,2,.57.25.3.48.62.7.93,1.22,1.52,1.69-.54,2.55-.73a1.4,1.4,0,0,1,1.11.24,7.46,7.46,0,0,1,1.17,3.15c-1.37,2.86-.42,6.76-3,9.1-1.1,1.23-.83,2.65-.4,4.09a12,12,0,0,1,.62,1.79c0,1.69.6,3.44-.28,5.07-1,.51-1.89,0-2.76-.54a3.69,3.69,0,0,1-1.12-1.5c-.31-.64-.08-2.21-1.41-1.05C1079.47,143.45,1078.73,144.85,1077.45,143.65Z"/><path class="cls-6" d="M1187.46,63.1l.78-.65c1.12.39.89-1.49,1.81-1.44,1.28.16.66,2,1.67,2.45.93.58,1.12,1.7,1.47,2.7a8.24,8.24,0,0,0,1.18,2.77,9.34,9.34,0,0,1,.68,1c.64,1.34,1.5,2.5,2.21,3.78a2,2,0,0,1-.18,1.29,2.15,2.15,0,0,1-1.61.57c-1.32-.16-2.28-1.23-3.42-1.82-1.17-.25-1.65,1.27-2.66,1.42-1.4,0-2,1.5-3,2.24a3.12,3.12,0,0,1-2.34.17c-2-1.2-3.34-3.42-5.37-4.58a4.07,4.07,0,0,1-.61-2,3.69,3.69,0,0,1,1.79-3.49,3.16,3.16,0,0,0,2.6-2.06c.45-1.59.28-3.48,1.63-4.64l.87,0C1185.48,61.95,1185.5,63.93,1187.46,63.1Z"/><path class="cls-7" d="M1171.21,230.21c-2.16,2.32-2.74-3.35-4.85-1.28-1,.16-1.13,1.79-2.19,1.91-.64-.29-1.12-1.7-2-.33-2,3.08-3.46,1.88-4.74-.79.5-2.21,1.37-4,3.6-3.93-.06,0,0-.06,0-.06l-.31,0c-1.23-.18-2.33,1.19-3.56.27a2.42,2.42,0,0,1-.44-1.91c-.28-1.16,2.17-1.12.88-2.72a5.28,5.28,0,0,1,1.86-4.81,1.66,1.66,0,0,1,1-.16c.55.26.92,1,1.61.91.57-.33,1-.94,1.61-1.14a3.42,3.42,0,0,1,3.1,1.24,3.56,3.56,0,0,1,.5,1.87c-.05,1.7,0,3.34,1.57,4.25a8,8,0,0,1,2.27,3.15A4.94,4.94,0,0,1,1171.21,230.21Z"/><path class="cls-8" d="M1122.7,223.75c-3,2.81-6.19,3.83-9.83,1.46-.49-.32-1.49.4-2.25.63-1.55-3,.25-5.35,1.14-7.87,4-1.93,8-3.7,12.45-3.06,2,1,1.52,3,1.52,4.84C1125.71,222.08,1123.1,221.8,1122.7,223.75Z"/><path class="cls-9" d="M1248.84,134.74c-.58.33-1,1.33-.66,1.54,1.6,1,3.61,1.6.31,3.38-1.92,1,.38,2,.38,3.12-1.73,1.62-4.7-.74-5.93,2.47-.88.67-1.78,1.2-2.87.67a8.54,8.54,0,0,1-.93-6.18,6.32,6.32,0,0,1,.47-1.29c1.9-1.63,1.69-4.37,2.54-6.54.66-1.39.87-3,1.57-4.36,1.25-1.46,2.45-1.25,3.62.15l1.49,3.16A5.37,5.37,0,0,1,1248.84,134.74Z"/><path class="cls-10" d="M1192.68,224.67c-2.5,1.64-5,2.88-7.73.49-.94-.81-2.3-1-3.47-1.46a7.47,7.47,0,0,1-2.22-3,3.18,3.18,0,0,1,.15-1.93,8.11,8.11,0,0,0,1.64-2.5,3.57,3.57,0,0,1,1.14-1.46,3.08,3.08,0,0,1,2.87-.51c2.93,3,6.7,1.5,10,2.52a3.29,3.29,0,0,1,1.08.64,2.38,2.38,0,0,1,.37,1.3c-.37,1.72-1.18,3.53-2.74,3.22C1189.9,221.19,1194,224.32,1192.68,224.67Z"/><path class="cls-11" d="M1233.4,66.49c.22-.21.57-.65.63-.6,2.78,2.34,6-1.34,8.77.89a6.51,6.51,0,0,1-.15,1.82,22.91,22.91,0,0,0-.25,3,22.88,22.88,0,0,0-.13,3.62,8.19,8.19,0,0,1-3,3.63c-1.3.36-1.89-1.89-3.29-1.19s-2.47,0-3.09-1.56a4.19,4.19,0,0,1-.2-1.21,3.3,3.3,0,0,1,.27-1.06c.31-1.05-.32.08-.34-.17a3.27,3.27,0,0,1-.76.25,7.74,7.74,0,0,1-4.23-.4,2.45,2.45,0,0,1-.88-1,4.16,4.16,0,0,1-.16-1.42,2,2,0,0,1,1.07-1.6,6.7,6.7,0,0,1,1.72-.07C1231.36,69.57,1231.78,66.93,1233.4,66.49Z"/><path class="cls-12" d="M1142.47,60.8c1.37,1.2,2.3.65,2.88-1,.52-1.51,1.47-1.12,2.42-.85,1,.56,2.26.43,3,1.65a5.31,5.31,0,0,0,2.23,2.6,3.89,3.89,0,0,1,1.16,1.43,5.7,5.7,0,0,1,.27,1.32c.07,2.07.48,4.37-2.23,4.65-3,.09-5.09-3.14-8.08-3.22a6.89,6.89,0,0,1-4.32-2.43,1.45,1.45,0,0,1,.13-1.33h-.08C1141.65,63.86,1140.55,60.42,1142.47,60.8Z"/><path class="cls-13" d="M1077.45,143.65l3-1.88c1.53-.48,1.22,1,1.52,1.88l1,1.14a3.88,3.88,0,0,1,.79,3.21,20.59,20.59,0,0,0-.21,5.77c-.83,2.77,2.69,2,2.57,4.2a4.17,4.17,0,0,1-.07,2.66c-1,1.82-2.22,1.39-3.49.5a4.52,4.52,0,0,0-3.61-.57,3,3,0,0,1-2.07-.79C1080.49,154.56,1079.75,149.14,1077.45,143.65Z"/><path class="cls-14" d="M1184,60.77c-.73,1.57.36,3.57-.89,5a14.11,14.11,0,0,0-2.71,2,3.22,3.22,0,0,0-1.58,3,5.39,5.39,0,0,1-3.57,1.69c-1.59,0-2.31-1-2.27-2.79.1-2,1.88-2.62,2.1-3.16.14-.37-.34-.18-.92-.2a2.17,2.17,0,0,1-1.62-2.4c.49-1,1.49-1.25,2.12-2a5.18,5.18,0,0,1,3.29-3,1.33,1.33,0,0,1,2.41.45C1181.08,62.15,1182.72,60.75,1184,60.77Z"/><path class="cls-15" d="M1240.95,179.84l1-.06q.41.51.86,1l0,0a.8.8,0,0,1,.24.73q-.08.39-.18.39c-.19.93-1.35,1.53-.4,2.85s1.38-.27,2,0a1.3,1.3,0,0,1,1,1.11l.63,4.94c-.64,2-2.18.76-3.24,1.26-1.3.72-2.17,2.42-3.84,2.31a2.75,2.75,0,0,1-1.92-1.55,3.82,3.82,0,0,1-.17-2.1c-.72-.9,2.89-1.16.18-2.65-1.84-1-2.12-3.31-.89-5.48a3.31,3.31,0,0,1,2.44-1.56A2.28,2.28,0,0,0,1240.95,179.84Z"/><path class="cls-16" d="M1083,159.78c.79.59,1.31,2.12,2.59,1a2.85,2.85,0,0,1,1.73,1.93c.62,1.83.93,3.61-.63,5.08-1.17,1.13-1.23,3.08-2.32,4.28a9.55,9.55,0,0,0-1.74,3.16c-.37.57-.83.91-1.48.69a6.4,6.4,0,0,1-1.27-3c-.43-1.3.51-2.85-.54-4-.75-.51-1.19-1.42-1.88-2-.46-.26-1.26-.46-1.31-.81-.19-1.31.71-1.88,1.59-2.35a4,4,0,0,0,2.36-2.23C1080.87,160.54,1082.17,160.73,1083,159.78Z"/><path class="cls-17" d="M1145.26,222c-2.7,2-5.17,4.75-8.81,4-.58-1.92-1.92-3.27-2.77-5a2.61,2.61,0,0,1,0-1.32,6.44,6.44,0,0,1,1.78-1.67c1.1-.87,2.18-1.8,3.61-1.8,1.53-.24,3-1.28,4.6-.68a6.14,6.14,0,0,1,2.1,3.57A3.36,3.36,0,0,1,1145.26,222Z"/><path class="cls-18" d="M1085.59,66.77l6.84-.19a3.15,3.15,0,0,1,.27,2.46c-.08.63-.19,1.26-.32,1.88-.51,1.54.72,2.78.56,4.27-.41,1.49-1.23,2.29-2.62,2.17-1.53-2.81-1.93.48-2.89.73a1.94,1.94,0,0,1-1.14.06c-1.22-.7-2.41-1.44-2.8-3.13a29.86,29.86,0,0,1,.39-3.72,13.43,13.43,0,0,0,.45-2.87A1.8,1.8,0,0,1,1085.59,66.77Z"/><path class="cls-19" d="M1244.6,217c-2.07.9-1.24,5.24-4.35,4.89a1.71,1.71,0,0,1-.41-1.1c.09-1,.41-2,.5-3,0-2.1-1.13-1.38-2.08-1-1.34.34-2.66,1.13-4.06.28-.56-1-.09-1.74.43-2.48,1.75-.89,1.5-2.8,1.7-4.5a5.2,5.2,0,0,1,3.71-3.19C1245,207.78,1246.24,210.48,1244.6,217Z"/><path class="cls-20" d="M1244.6,217c-.18-7.52-.91-8.76-5.37-9.15-.78.2-1-.36-1.2-1.08a3.17,3.17,0,0,1,.27-1.28c1.12-1.37.55-2.62-.23-3.85a2.69,2.69,0,0,1,.21-2,2.83,2.83,0,0,1,1.65-.85,3.93,3.93,0,0,1,1.79.17c1.2.32,1.09,2.18,2.24,2.57a11.81,11.81,0,0,1,1.88,2.35c.46.87.39,2.13,1.46,2.51a1.39,1.39,0,0,1,1,1.2A15,15,0,0,1,1244.6,217Z"/><path class="cls-21" d="M1192.86,66.87c-1.17-.78-1-2.17-1.14-3.41,0-.59.28-.81.75-.8,1.21-.81,2.55.9,3.74-.25a1.78,1.78,0,0,1,1.66.09c.64,1.18.59,3.25,2.59,2.7a2.88,2.88,0,0,1,1.12.26c2.16,1.35,1.78,4.23,2.81,6.26a4.48,4.48,0,0,1,.06,2,6.8,6.8,0,0,1-1.11,2.41c-2.46,2.18-3.38-.53-4.7-2-.49-1-.19-2.08-.48-3.08-1.09-1.63-2.85-1.79-4.3-2.61A3.15,3.15,0,0,1,1192.86,66.87Z"/><path class="cls-22" d="M1081.24,175.77l.82-.72a8.46,8.46,0,0,1,1.51-1.94,2.79,2.79,0,0,1,3.31-.24,4.59,4.59,0,0,1,2.57,2.49c.23,1,0,2.06.53,3s1.41,1.55.69,2.79a2.9,2.9,0,0,1-1.63.69,4,4,0,0,1-1.72-.22c-1.71-2.09-1.79,1-2.77,1.18l-1.78.1c-2,.31-2.62-.87-2.44-2.95a3.68,3.68,0,0,1,0-3.24A2.54,2.54,0,0,1,1081.24,175.77Z"/><path class="cls-23" d="M1205.6,225c-2.48.42-4.11-2.81-6.66-2.07-1.25.58-1.39-.42-1.53-1.43a3.21,3.21,0,0,1,.49-1.31,8,8,0,0,1,1.82-1.92,2.94,2.94,0,0,1,2.37-.23c1.8,2.9,3.4,1.21,5-.3,1.15-.83,2.55-.35,3.75-1a6.31,6.31,0,0,1,3.41-.59,7.44,7.44,0,0,1,2.28,1,3.47,3.47,0,0,1,1.36,3.72c-1.64,1.24-3.46.85-5.22.63-1.37-.17-2.74-.68-3.87.73C1207.74,223.15,1206.86,224.35,1205.6,225Z"/><path class="cls-24" d="M1092.48,74.83c-.49-1.32-2-2.38-.85-4.14a1,1,0,0,0,0-1.73l.75-2.38c.89-2.12,2.53-2,4.18-1.9,2.92-.53,2.09,3.65,4.06,4.32a3.2,3.2,0,0,1,.61,1.18c-.21,2-1.61,2.64-2.91,3.39C1096.41,74,1094.74,76.27,1092.48,74.83Z"/><path class="cls-25" d="M1084.57,68.63c1,.64.29,1.41.12,2.14a22.77,22.77,0,0,0-1.25,4.46,4.15,4.15,0,0,1-.18,2.85,3.72,3.72,0,0,1-2.25,1.67,3.13,3.13,0,0,1-3.25-1,20.91,20.91,0,0,1,1-2.64c1-1.81,2.1-3.34-1.18-3.41-2.3,0-1.35-1.7-.57-3,.69-.91,1.86-1.72,2.55-1.25,2.28,1.54,1.79-1.28,2.61-2l1.56-.08C1084.55,66.92,1084.32,67.9,1084.57,68.63Z"/><path class="cls-26" d="M1217.75,220.77c-.57-1.18-.88-2.58-2.09-3.21-2-5.7,2.68-2.52,3.88-4,1.24,1.36,1,3.56,2.07,5,.61.84,1.43.74,2.25.66a2.27,2.27,0,0,1,1,.26,3.12,3.12,0,0,1,1.15,2.13,5.07,5.07,0,0,1-.61,2.51,2.22,2.22,0,0,1-.85.85c-2.81-.71-5.61-1.6-8.53-1.06C1215.29,221.92,1217,221.66,1217.75,220.77Z"/><path class="cls-27" d="M1155.73,228.89c-4.05.05-6.69-2.6-8.83-6.19a3,3,0,0,1,.65-3,14.55,14.55,0,0,0,3.91-2.24c1.62.09,3.3.94,2.63,2.87-1.29,3.68,1.26.56,1.49,1.32a2.64,2.64,0,0,1,.66,1.78C1155.94,225.19,1155.37,227,1155.73,228.89Z"/><path class="cls-28" d="M1248.29,207.54l-1.17-.77c-1.85.33-1.06-1.35-1.29-2.26,0-1-.62-1.58-.94-2.36a7,7,0,0,1-.69-3.09c1.11-1.48-1.14-1.42-.87-2.52a2.15,2.15,0,0,1,.34-1.2,5.82,5.82,0,0,1,3.56-1.84c2.63,1.89-.71,6.11,2.29,7.86-1.43,1.09-.33,1.9.25,2.72C1251.49,206.52,1250.14,207.16,1248.29,207.54Z"/><path class="cls-29" d="M1247.86,94.76c.09,4.35-2,7.08-5,9.17l-.26.55a1.49,1.49,0,0,1-1.46.57,3.59,3.59,0,0,1-1.27-2.61,4.79,4.79,0,0,1,.16-1.19c.23-1-.18-2-.12-3,.32-2,3.42-1.68,2.86-4.47C1244.65,92.71,1246.16,94.39,1247.86,94.76Z"/><path class="cls-30" d="M1225.53,221.77l-.89-2c-.55-1.75.53-2.48,1.51-3.29.94-.37,1.91-.07,2.86-.2s1.88-.4,2.73.32c.79,1.24,0,3.46,1.84,4,.79.95,1.27,2.16,2.06,3.11-1.11,3.13-3.23.84-4.85,1.21A19,19,0,0,0,1225.53,221.77Z"/><path class="cls-31" d="M1112.34,217.81c.33,2.94-2.1,5.08-1.73,8L1108,223.9a7.86,7.86,0,0,1-1.36-2.79,10.78,10.78,0,0,1-.3-1.2,8.15,8.15,0,0,0-1.33-3.25,3.47,3.47,0,0,1-.14-1.84c1-2.36,2.57-.31,3.82-.72C1110.43,214.62,1111.27,216.37,1112.34,217.81Z"/><path class="cls-32" d="M1242.81,144.78c.65-6.19,4-1.37,6.06-2-.24,2.89-2.92,4.68-2.63,7.81-.58-1.51-1.5-1.53-2.59-.78a1.19,1.19,0,0,1-1.55.33l-.39-.48a2.51,2.51,0,0,1,.09-1.28C1242.45,147.3,1242.17,145.86,1242.81,144.78Z"/><path class="cls-33" d="M1247.33,127.69c-1.29-.74-2.52-.07-3.77.23l-.48-.28c-1.61-.82-3.89-.67-4-3.68a7.75,7.75,0,0,1,1.75-2.52,4.77,4.77,0,0,1,2-1.16,1.31,1.31,0,0,1,1,.4C1247.48,121.35,1246.81,124.91,1247.33,127.69Z"/><path class="cls-34" d="M1099.38,226.81c-.83.24-1.51.11-1.73-1-.92-.52-2.07,0-2.93-.87a5.3,5.3,0,0,1-5.71-2.28,1.78,1.78,0,0,1-.27-1.93,3,3,0,0,1,2.08-1.31c1.47.56,2.93.93,4.31-.3a4.25,4.25,0,0,1,1.18-.29c1,0,2,.19,2.41,1.57-.9,1.34-.8,2.43.63,3.17A2.7,2.7,0,0,1,1099.38,226.81Z"/><path class="cls-35" d="M1197.87,220.77a2.19,2.19,0,0,0,1.06,2.11c-1.89,1.53-3.54,4.2-6.26,1.78a14.49,14.49,0,0,0-1.48-1.73c-.77-.67-2.08-1.11-1.43-2.51.48-1,1.61-.54,2.29,0,2.15,1.83,3-.31,4.08-1.68A3.28,3.28,0,0,1,1197.87,220.77Z"/><path class="cls-36" d="M1203.93,71.78c-2.49-1-.66-4.61-2.59-6,.84-1.47,2.5-1.68,3.46-3,2.68-.7,2.9.55,1.74,2.91.79.85,2.16,1.19,2,2.94a5.94,5.94,0,0,1-1.6,1.84C1206,71.15,1205.28,72.52,1203.93,71.78Z"/><path class="cls-37" d="M1133.94,220.77c1.39,1.39,3.82,2.11,2.5,5.23-3.71-.07-7.4-.2-10.49-3.08a2.85,2.85,0,0,1,1.74-1.64c1.16-.33,2.48.42,3.52-.72C1132.16,220.09,1133,220.53,1133.94,220.77Z"/><path class="cls-38" d="M1077.77,78.77h3.47a2.46,2.46,0,0,1,1.38,1.82,3.79,3.79,0,0,1-.12,1.24,10.27,10.27,0,0,1-.8,1.59,12.39,12.39,0,0,0-1,3.37,2.49,2.49,0,0,1-1.14,1.26,6.49,6.49,0,0,1-2.6-.29c-.23-.39-.72-.84-.66-1.17C1076.73,84,1077.27,81.38,1077.77,78.77Z"/><path class="cls-39" d="M1247.23,78.52c1.84,3.05,1.88,6.6,2,10.11-1.93,1.25-2.29-1.12-3.33-1.91-.76-1.06-1.8-1.78-2.6-2.82a4.27,4.27,0,0,1-.4-1.33,3.66,3.66,0,0,1,.46-2A5.63,5.63,0,0,1,1247.23,78.52Z"/><path class="cls-40" d="M1100.35,62.92c-.23-1.15-.34-2.21,1.12-2.19a7.26,7.26,0,0,1,3.5-2c1.07.15,2.24-.93,3.22.34,2.1,1.41,1.56,3,.32,4.75a2.48,2.48,0,0,1-1.1.49c-1.31,0-2.61-.12-3.92-.22a19.63,19.63,0,0,1-2.1,0C1100.81,64,1100.66,63.37,1100.35,62.92Z"/><path class="cls-41" d="M1217.75,220.77l-1.7,3.16c-.91,1.83-2.25,1-3.5.76a15.35,15.35,0,0,1-3-1.7,3.11,3.11,0,0,1-1.29-1.22c.12-1.8,1.18-2.1,2.43-2C1213,220.09,1215.39,220.44,1217.75,220.77Z"/><path class="cls-42" d="M1243.6,82.74l.07,1c.43.89,1.17,1.56,1.32,2.64a11.78,11.78,0,0,0,1,2.81,12,12,0,0,0,1.88,4.53l-.06,1c-1.89,1.37-3.29-.79-5-.94l-.37-.55c-.35-2.49-1.39-4.76-1.82-7.22.08-1.28-.17-2.66.79-3.7A1.57,1.57,0,0,1,1243.6,82.74Z"/><path class="cls-43" d="M1219.51,58.86c1-.43,1.7.32,2.39,1a2.35,2.35,0,0,1,2.56.85c.37,1,1.53,1.63,1,3a12.18,12.18,0,0,1-.67,1.68c-.73.95-1.48,1.85-2.73,1.68-1-.54-1.49-1.7-2.12-2.68a11.1,11.1,0,0,1-.88-1.53,5.57,5.57,0,0,1-.32-1.19,5.14,5.14,0,0,1,.11-1.87A2.69,2.69,0,0,1,1219.51,58.86Z"/><path class="cls-44" d="M1082.17,66.57c-.12,4.54-3.25,2.56-5.17,3.2.35-1.13-3.44-.51-.69-3.13C1078.71,64.35,1080.19,64.59,1082.17,66.57Z"/><path class="cls-45" d="M1208.25,68.64l-1.73-2.9c2.11-.7,4.4-.9,6-2.91a2.86,2.86,0,0,1,.57,2.6,7.22,7.22,0,0,1-.85,1.79c-.31,2.41-.93,4.64-2.66,6.25a1.71,1.71,0,0,1-2.2.62,2.64,2.64,0,0,1-.77-1.85C1206.59,70.69,1207.82,69.9,1208.25,68.64Z"/><path class="cls-46" d="M1167.73,51.61a5.68,5.68,0,0,1,3.58-1.62c2,2.3-2.26,5.82,1.42,7.63.75,1.78-.06,2.84-1.27,3.71a2.17,2.17,0,0,1-2.39-.59,5.09,5.09,0,0,1-1.1-2.52,4.74,4.74,0,0,1,.11-1.36c.18-.63.43-1.23.64-1.84C1169.34,53.52,1168,52.75,1167.73,51.61Z"/><path class="cls-47" d="M1241.94,67.78l.86-1c1.22-.15,1.82-2.92,3.51-1.11,0,2.26,2.79,2.68,2.56,5.12.56,3.17-1.57,1.6-2.6,2l-.55-.17A17.13,17.13,0,0,1,1241.94,67.78Z"/><path class="cls-48" d="M1170.94,60.89c1.1-.72,1.45-2,1.8-3.27.56-2.51,1.69-2.7,2.58-.45a2.24,2.24,0,0,0,2.68,1.7c-1.21.94-1.69,2.48-2.35,3.87-1.47-.13-3,.4-4.39-.54A1.4,1.4,0,0,1,1170.94,60.89Z"/><path class="cls-49" d="M1233.4,66.49c-.88,2.25-1.6,4.71-4.42,4.28-.42-.94.09-2.05-.41-3a6.74,6.74,0,0,0-1-1.25,2.94,2.94,0,0,1-.63-.93,1,1,0,0,1,.31-1c.06-.77.51-2.24.76-1.8C1229.29,65.17,1232.41,63.74,1233.4,66.49Z"/><path class="cls-50" d="M1170.23,226.79l-1.69-2.93a5.47,5.47,0,0,1,2.51-2.57,3.61,3.61,0,0,1,1.12-.33,4.12,4.12,0,0,1,3.21,1.43,3.56,3.56,0,0,1,0,3.27l-1.57,1.17C1172.62,228,1171.43,227.23,1170.23,226.79Z"/><path class="cls-51" d="M1175.4,225.66a2.75,2.75,0,0,1,0-2.86c-.31-.9.16-1.32.76-1.67a2.84,2.84,0,0,1,1.89,0c.89.59,2.06.95,1.68,2.63.3,1.15,1.7,2.24.91,3.37-1,1.42-1.89-.46-2.86-.75Z"/><path class="cls-52" d="M1247.24,193.5a4.37,4.37,0,0,1-3.56,2.27c-2.29.87-3.33.21-2.12-2.59a23.67,23.67,0,0,0,1.24-2.41c1.13-1.25,2.26,1.71,3.39,0C1246.61,191.65,1247.53,192.26,1247.24,193.5Z"/><path class="cls-36" d="M1198.76,59.95c1.93.07,3.87,1.29,6-1.46l-.78,4.06c0,2.86-2.09,1.85-3.33,2.43-2.28.08-2.12-2.09-2.55-3.71A2.47,2.47,0,0,1,1198.76,59.95Z"/><path class="cls-24" d="M1128.83,61.59l1.64.31c1.17,1.58,2.25-1,3.41-.11a1.06,1.06,0,0,1,.21.73,5.27,5.27,0,0,1,1.77,2.57,2.92,2.92,0,0,1,0,1.33,2,2,0,0,1-2,1.14,19.17,19.17,0,0,0-4-.44,2.87,2.87,0,0,1-1.82-1.92A3.74,3.74,0,0,1,1128.83,61.59Z"/><path class="cls-53" d="M1108.23,63.55a3.32,3.32,0,0,0,0-4.45c3.91-2.44,2.91,2.36,4.19,3.8a4,4,0,0,1-2,2.13,1.4,1.4,0,0,1-.86.31,1.89,1.89,0,0,1-.86-.38A1.38,1.38,0,0,1,1108.23,63.55Z"/><path class="cls-5" d="M1089,220.77q0,.93,0,1.86c-1.48.13-3.46,1.45-3.46-1.95a2.76,2.76,0,0,1-.59-2.11,2.65,2.65,0,0,1,2.35-2.35C1090,216.66,1091,218,1089,220.77Z"/><path class="cls-54" d="M1100.35,62.92l.72.86a2.83,2.83,0,0,1,.68,1.24,6,6,0,0,1-1.51,4.75c-2.77-.21-1.44-4.34-3.64-5.09.25-2,.76-3.15,2.35-1C1100.12,65.22,1100,63.57,1100.35,62.92Z"/><path class="cls-55" d="M1157.19,53.3c.39-1.46-1.13-3.5.29-4.31s2.85.63,4.11,1.65a1.29,1.29,0,0,1,.2,1.37,5,5,0,0,1-2.47,2.45C1158.44,54.53,1157.48,54.74,1157.19,53.3Z"/><path class="cls-56" d="M1247.23,78.52a4.35,4.35,0,0,1-3.56,2.24,2.16,2.16,0,0,1-1.34-2.55c.84-1-.36-2.2.23-3.24a1.33,1.33,0,0,1,1-.51,28.72,28.72,0,0,0,2.64,1.34C1246.61,76.67,1247.49,77.3,1247.23,78.52Z"/><path class="cls-57" d="M1247.2,163.57c-1.22,1.43-1.39-.09-1.83-.87a2.57,2.57,0,0,1-.92-2.65l2.8-2.59C1251.36,159.55,1246.83,161.53,1247.2,163.57Z"/><path class="cls-58" d="M1245.53,113a.88.88,0,0,1-.11.71c-.74,1.18-1.56,2.23-2.91,2.47a1.5,1.5,0,0,1-1-.71,16.54,16.54,0,0,1-.78-5.79,1.87,1.87,0,0,1,1.9-1.67,2.5,2.5,0,0,1,1.23.47C1244.88,109.73,1246,111,1245.53,113Z"/><path class="cls-59" d="M1246.26,85.77c1.41.37,1.47,2.67,3,2.86,2,1.63,1.59,2.91-.44,4-1.63-.49-3.09-1.17-3-3.58a4.86,4.86,0,0,1-.22-2.08A2.48,2.48,0,0,1,1246.26,85.77Z"/><path class="cls-60" d="M1240.16,220.86l.08,1c-.69,4.51-3.11-.62-4.31,1a2.44,2.44,0,0,1-.64-2,2.73,2.73,0,0,1,1.71-2.11C1238.7,218.16,1240,218.32,1240.16,220.86Z"/><path class="cls-61" d="M1107.16,220.78c1,.78.84,2,.82,3.13h-4.24a4.3,4.3,0,0,1-2.89-3.27C1103,217.54,1105.05,220.94,1107.16,220.78Z"/><path class="cls-62" d="M1127.91,221.78l-2,1.13a2.59,2.59,0,0,1-3.26.83c.33-.64-3.69-2.22.33-2.07,1.22,0,1.4-1.45,2.27-1.91a4.07,4.07,0,0,1,2,.27,2.24,2.24,0,0,1,.83.7A.93.93,0,0,1,1127.91,221.78Z"/><path class="cls-63" d="M1248.86,70.78c-.6-1.88-3.56-2.17-2.56-5.12,2-.93,3.36.65,4.21,2C1251.25,68.84,1249.24,69.56,1248.86,70.78Z"/><path class="cls-64" d="M1083,103.8l0-1a2.63,2.63,0,0,1,.72-1.63,2.23,2.23,0,0,1,2-.75,6.56,6.56,0,0,1,2.85,2,3.08,3.08,0,0,1,.68,2.46,2.4,2.4,0,0,1-1.83,1.49c-1.59-.09-2.79-1.22-4.12-2Z"/><path class="cls-65" d="M1077.44,166.9l2.95.9a4.22,4.22,0,0,1-.73,3.28c-.82.88-1.92.64-2.88,1C1072.77,169.6,1077.63,168.68,1077.44,166.9Z"/><path class="cls-66" d="M1080.5,113.56a1.27,1.27,0,0,1-.34-.7,2.2,2.2,0,0,1,1.47-2.6,2.45,2.45,0,0,1,1.18.06,4.54,4.54,0,0,1,2.15,2.26,4.16,4.16,0,0,1,.27,1.3,5.09,5.09,0,0,1-1.16,3,1.39,1.39,0,0,1-1.09.21,7,7,0,0,1-.78-.94A7.41,7.41,0,0,1,1080.5,113.56Z"/><path class="cls-67" d="M1208.25,221.77H1210a8.93,8.93,0,0,1,0,3.92c-1.48,0-3.29,2.6-4.35-.74C1205.63,222.94,1207.06,222.49,1208.25,221.77Z"/><path class="cls-68" d="M1215.05,62.72c-.37-1.2-1.23-2.6-.5-3.65.87-1.26,1.95.36,3,.45.64.23.75.84.79,1.49a4.94,4.94,0,0,1-.26,1.26,7.27,7.27,0,0,1-.54,1.15,2.51,2.51,0,0,1-.88.84,1.6,1.6,0,0,1-1.64-.34A1.14,1.14,0,0,1,1215.05,62.72Z"/><path class="cls-69" d="M1128.83,61.59l-.06,4.2c-.22,2.39-1.5,1.33-2.55,1-1.33-2.67,1.35-3.86,1.65-5.93C1128.39,60.75,1128.74,60.94,1128.83,61.59Z"/><path class="cls-11" d="M1155.73,228.89c-2.46-1.72-1-3.54-.1-5.35a1.07,1.07,0,0,1,1.65.49v1.77a2.5,2.5,0,0,1-.11,3.24Z"/><path class="cls-70" d="M1225.53,221.77c2.79-1.21,4.37.23,5.25,3.21-.4,1.16-1.07.94-1.79.48a4.22,4.22,0,0,0-2.92-1,1.7,1.7,0,0,1-1.41-.71Z"/><path class="cls-71" d="M1079.37,98.08c-1.85-1.1-1.59-3.26-1.92-5.13a29.76,29.76,0,0,0,1.16-3,2.47,2.47,0,0,1,1.2-1.56,1.26,1.26,0,0,1,1.09.75c1,2.71.1,5.22-.57,7.76A2.49,2.49,0,0,1,1079.37,98.08Z"/><path class="cls-72" d="M1081.24,175.77l0,1c-1.49,1.24-2.33-.42-3.41-1l-.28-2.85a1.66,1.66,0,0,1,1.7-.87,2.48,2.48,0,0,1,1.14.72C1081.38,173.49,1081.21,174.67,1081.24,175.77Z"/><path class="cls-73" d="M1082.89,110.69h-.33l-.32-.11c-.79-.47-1.68-.79-2-1.92.41-.79,2-.7,1.14-2.45s.59-2,1.57-2.42l0,0a4.63,4.63,0,0,1,.88,1.74,9.28,9.28,0,0,1,.37,4,2.39,2.39,0,0,1-.79,1Z"/><path class="cls-74" d="M1242.77,115.63c.45-1.44,1.56-1.67,2.65-1.93.18,1,1.5,2.68.27,2.8-3.07.29-1.79,2.49-1.86,4.17l-1,.19C1241.41,119.13,1241.71,117.38,1242.77,115.63Z"/><path class="cls-75" d="M1139.91,63.6l.08,1.16a5.82,5.82,0,0,1-4.3,1l-.07-.1a5.67,5.67,0,0,1-.14-4.15C1138,59.14,1138,64,1139.91,63.6Z"/><path class="cls-76" d="M1080.49,216.77c2.21-.1,2.51-2.35,3.34-4a.51.51,0,0,1,.85,0l.93,1.25c.14,1.82-.33,3.3-1.8,4.2a1.12,1.12,0,0,1-1.13-.32C1081.89,217.67,1080.67,218.58,1080.49,216.77Z"/><path class="cls-77" d="M1080.25,108.67c1,.2,1.9.48,2,1.92-1.06.3-1.47,1.42-2.08,2.27-.9-.69-2.49-.9-2.45-2.27S1079.11,108.83,1080.25,108.67Z"/><path class="cls-78" d="M1157.17,229l.11-3.24,4.46-1a1.36,1.36,0,0,1,.71,1.88c-2.46-.75-3.53,1.6-5,3A.67.67,0,0,1,1157.17,229Z"/><path class="cls-79" d="M1246.18,88.65c-.26,2.35,2.74,1.75,2.65,3.94l-.92,1.18c-3.47.19-2.28-2.85-2.53-4.89A.49.49,0,0,1,1246.18,88.65Z"/><path class="cls-80" d="M1169.34,55.83l-.81,1-.52-.18A13.69,13.69,0,0,1,1165.7,55a27.08,27.08,0,0,1-1.54-2.64,2.4,2.4,0,0,1-.23-1.25,1.4,1.4,0,0,1,1.28-1.06c1.39-.78,1.72.26,1.93,1.51C1167.57,53.21,1170.81,52.87,1169.34,55.83Z"/><path class="cls-81" d="M1080.37,161.77c-.1,2.06-.79,3.06-2.64,2,1.55-1.85-1-2.52-.86-4l2.65,0C1081.11,159.69,1080.92,160.63,1080.37,161.77Z"/><path class="cls-82" d="M1235.89,220.76l0,2.16a1.18,1.18,0,0,1-.3.86c-1.92.2-2.49-1-2.34-3a2.53,2.53,0,0,1-.44-2.68,1.31,1.31,0,0,1,1-.72C1235.24,217.94,1235.39,219.49,1235.89,220.76Z"/><path class="cls-83" d="M1243.47,108.88l-1-.1c-1-1.73-.62-3.37.26-5l.07.11c.58.33,1.69.91,1.68.94-1.24,3.46,1.89,3.33,2.94,4.86C1245.83,111.4,1244.64,110.16,1243.47,108.88Z"/><path class="cls-84" d="M1215.05,62.72l.31,1a4,4,0,0,1,1,2.52,1.57,1.57,0,0,1-.74,1.07,2.15,2.15,0,0,1-3-1.58V62.83Z"/><path class="cls-85" d="M1079.6,88.6l-.09,2.18c-1.19,1.1-2.37.91-3.55,0a3.68,3.68,0,0,1,1-3,1.87,1.87,0,0,1,2.49,0,.51.51,0,0,1,.27.5Q1079.68,88.59,1079.6,88.6Z"/><path class="cls-86" d="M1243.47,108.88l4,.84c1.85,3.08-1.49,2-1.94,3.27Z"/><path class="cls-26" d="M1209.95,225.69c-1.73-1.33-1.48-2.63,0-3.92a6.21,6.21,0,0,1,2.57,2.92C1211.8,225.44,1211.17,226.58,1209.95,225.69Z"/><path class="cls-69" d="M1133.88,61.8c-1.43.2-1.31,3.13-3.1,2.49-1.11-.4-.65-1.5-.31-2.38C1131.59,61.12,1132.68,59.07,1133.88,61.8Z"/><path class="cls-87" d="M1150.39,60.78l-2.61-1.84c1.81.41,2.69-.83,3.31-2.51q2.44,1.41,1.28,4.26A1.25,1.25,0,0,1,1150.39,60.78Z"/><path class="cls-88" d="M1147.85,219.62l-1,3.08-1.64-.74-.09-3.18.23-.6c.89-1,1.69-.73,2.45.21A1.42,1.42,0,0,1,1147.85,219.62Z"/><path class="cls-89" d="M1196.14,62.87c-1.36,3.13-2.48.71-3.67-.22,0-.64-1.11-1.28,0-1.93,1.34-.78,1.93.62,2.8,1.24A1.24,1.24,0,0,1,1196.14,62.87Z"/><path class="cls-90" d="M1077.08,207.74c2.14-.11,2.66-2.06,3.29-3.9a.56.56,0,0,1,.87,0c-.16,2.5-.29,5-3.34,4.9Z"/><path class="cls-91" d="M1101.09,220.76a5.94,5.94,0,0,1,2.64,3.14c-.48,1.51-1.56,1.15-2.55,1.1a3.52,3.52,0,0,1-1.24-4A.72.72,0,0,1,1101.09,220.76Z"/><path class="cls-92" d="M1100.25,220.78l.93,4.22c-.46.79-.73,1.84-1.81,1.81,0-1.11.14-2.3-.85-3.05a1.91,1.91,0,0,1-.34-2C1098.77,221.18,1099.26,220.29,1100.25,220.78Z"/><path class="cls-93" d="M1200.44,64.75c.8-1.58,2.9-.35,3.58-2.2a1.6,1.6,0,0,1,.77.28c-.14,2.57-1.65,3-3.46,3l-.86,0a.73.73,0,0,1-.21-.68Q1200.35,64.75,1200.44,64.75Z"/><path class="cls-94" d="M1169.34,55.83c.63-2.37-3.36-1.5-2.21-4.23a.43.43,0,0,1,.6,0C1170.29,52,1171.08,53.26,1169.34,55.83Z"/><path class="cls-95" d="M1157.19,53.3l2.6.38a.85.85,0,0,1,1.15,0,3,3,0,0,1,.21,2.73,1.29,1.29,0,0,1-1,.67c-1.33-.86-2.83-.7-4.27-1a1.57,1.57,0,0,1-.49-2.26Z"/><path class="cls-96" d="M1082.94,115.77a1.45,1.45,0,0,1,.1.82c1.19,2.09,1.5,4.17-.09,6.2l-1.8-1.09c.82-1.73,2-3.44.2-5.3C1081.53,115,1082.14,115.07,1082.94,115.77Z"/><path class="cls-97" d="M1105,58.76c-.9,1.28-1.83,2.5-3.5,2C1100.94,56,1103.31,58.23,1105,58.76Z"/><path class="cls-98" d="M1170.23,226.79c1.21-1,2.4,0,3.59,0-.07,2-2.15,1.83-2.61,3.38Z"/><path class="cls-99" d="M1224.46,60.72c-.91,0-1.94.39-2.56-.85.17-1.45.81-2.58,2.12-2.07S1224.38,59.71,1224.46,60.72Z"/><path class="cls-100" d="M1076,90.74l3.55,0c0,1.55-.94,2-2.06,2.18C1077.07,92.11,1075.21,92.6,1076,90.74Z"/><path class="cls-101" d="M1082.94,115.77l-1.59.64c-3.46.32-.63-1.87-.85-2.85C1081.57,113.92,1082.72,114.16,1082.94,115.77Z"/><path class="cls-102" d="M1082.68,217.89l1.24-.16c.86-.4,1.26.22,1.61,1l0,2C1083.49,221.29,1082.56,220.31,1082.68,217.89Z"/><path class="cls-103" d="M1248.84,134.74a3.54,3.54,0,0,1,0-3.89C1251.38,132.13,1251.25,133.43,1248.84,134.74Z"/><path class="cls-104" d="M1179.74,223.79l-1.67-2c.25-1,.7-1.54,1.65-1.16a3.19,3.19,0,0,1,1.75,3Z"/><path class="cls-105" d="M1155.56,57.7l-1.61-1.95c-.31-1.5.2-2.1,1.49-1.84.13.78.1,1.68,1,1.93a1.47,1.47,0,0,1,.12,1.76A.69.69,0,0,1,1155.56,57.7Z"/><path class="cls-106" d="M1142.47,60.8c-1,.73-.59,3.36-2.65,2.81a4,4,0,0,0,.76-2.43C1140.73,60.19,1141.48,58.48,1142.47,60.8Z"/><path class="cls-107" d="M1152.93,55.78l.16,2.82a2.17,2.17,0,0,1,.1,2,.82.82,0,0,1-1.12.1,8.54,8.54,0,0,0-1-4.33A1.36,1.36,0,0,1,1152.93,55.78Z"/><path class="cls-108" d="M1246.19,75.8q-1.79,1.23-2.54-1c.18-1.71,1.65-1.41,2.46-2.13l.15.12Z"/><path class="cls-109" d="M1190.05,61c-1,.87.53,2.79-.86,3.25-.73.24-.78-1.06-.95-1.8C1188.5,61.38,1188.73,60.28,1190.05,61Z"/><path class="cls-110" d="M1224.66,223.77h1.73c.76.55,1.56,1.08,1,2.38-1.67,2-2-.22-2.79-1.15Z"/><path class="cls-111" d="M1079.37,98.08l.17-1.28a.9.9,0,0,1,1.25-.09,3.25,3.25,0,0,1,.6,4.23,1,1,0,0,1-1.26,0C1079.09,100.25,1079.57,99,1079.37,98.08Z"/><path class="cls-112" d="M1077.81,175.77l3.41,1-.89,3.14Z"/><path class="cls-113" d="M1165.2,50.09l-1.06,1.64a1.51,1.51,0,0,1-2.56-.12,8.2,8.2,0,0,0,0-1C1162.75,50.08,1163.74,48,1165.2,50.09Z"/><path class="cls-114" d="M1079.51,172.79l-2,.13-.74-.89c.61-1.3,1.67-1.25,2.72-1.25A1.53,1.53,0,0,1,1079.51,172.79Z"/><path class="cls-115" d="M1245.55,185.84l-1-1.11c.77-.73,1.7-1.66,2.31,0C1247.27,185.86,1246.2,185.76,1245.55,185.84Z"/><path class="cls-116" d="M1196.14,62.87l-.85-.91c1.62.41,1.86-2.38,3.47-2a6.45,6.45,0,0,1,0,.91c-.63.42-.21,1.5-.89,1.88Z"/><path class="cls-30" d="M1227.38,226.14l-1-2.38c1.55-.83,2.23.12,2.6,1.7Z"/><path class="cls-117" d="M1080.12,100.92l1.07-.24c1,.16,2.48-1.45,2.73,1.11l-.93,1A2.48,2.48,0,0,1,1080.12,100.92Z"/><path class="cls-118" d="M1135.48,61.54l.14,4.15a4.17,4.17,0,0,1-1.53-3.17Z"/><path class="cls-119" d="M1084.57,68.63a2.66,2.66,0,0,1-.84-2.14c.75-1.09,1.39-1.22,1.85.28Z"/><path class="cls-120" d="M1094.72,224.91c1.06-.07,2.17-.42,2.93.87C1096.6,225.81,1095,228.32,1094.72,224.91Z"/><path class="cls-121" d="M1164.17,230.84c.43-1.11,1.07-1.88,2.19-1.91-.2,1,.13,2.38-1,2.89C1164.74,232.09,1164.35,231.53,1164.17,230.84Z"/><path class="cls-122" d="M1187.46,63.1c-2.49,1.6-2.62-.23-2.55-2.35C1186,61.14,1185.52,63.9,1187.46,63.1Z"/><path class="cls-123" d="M1217.62,61.65l-.09-2.12c.43-1.12,1.06-1.44,2-.67q0,.44,0,.89c-.63.58-.27,1.68-.88,2.28A.91.91,0,0,1,1217.62,61.65Z"/><path class="cls-124" d="M1225.56,64.46l.8.44a2.28,2.28,0,0,1,.82.9l.25,0a1.28,1.28,0,0,1-.12,1.2,1.88,1.88,0,0,1-1.07.35,1.84,1.84,0,0,1-1-.59,3,3,0,0,1-.28-1.25A2,2,0,0,1,1225.56,64.46Z"/><path class="cls-125" d="M1224.54,64.67l.9-.93a.84.84,0,0,1,.12.73l-.16.35-.47.28Z"/><path class="cls-126" d="M1242.87,181.9l-.06-1.12.84.88A1.19,1.19,0,0,1,1242.87,181.9Z"/><path class="cls-127" d="M1227.18,65.8l-.82-.9.83-.3Z"/><path class="cls-128" d="M1089.36,180.92c-.21,1.28-1,2.48-.43,3.87-.72.72-1.39,1.6-2.5,1a2.5,2.5,0,0,1-.92-2.19c-.29-1.6.64-2.22,1.66-2.77Z"/><path class="cls-129" d="M1080.38,201.67c.39-1.34.18-3.9,2.16-2.87,1.64.86.4,2.66-.3,4A1.76,1.76,0,0,1,1080.38,201.67Z"/><path class="cls-130" d="M1085.54,218.69l-1.61-1,1.69-3.72,1.6,1.83.34.46-.42.36Z"/><path class="cls-131" d="M1087.17,180.81l-1.66,2.77-1-.81c.1-1.27-.14-2.79,1.14-3.38C1086,179.27,1086.66,180.31,1087.17,180.81Z"/><path class="cls-132" d="M1086.5,192.83c-1.53-.58-3.83.13-4-3.76,1.8,1.21,3.2,2,4,3.78Z"/><path class="cls-133" d="M1083.07,210.67c-.53-.89-2.72-.92-1.32-2.8,1.08-1.44,1.67,0,2.22,1C1084.3,209.86,1084.43,210.75,1083.07,210.67Z"/><path class="cls-134" d="M1083.07,210.67l.9-1.84a3.14,3.14,0,0,1,.71,3.93h-.85C1083.18,212.27,1081.91,212.06,1083.07,210.67Z"/><path class="cls-135" d="M1086.51,195.73c1.88,1.59-.23,2.65-.39,4C1085.31,198.25,1085.19,196.9,1086.51,195.73Z"/><path class="cls-136" d="M1080.38,201.67c.72.13,1.51.09,1.86,1.08l-1,1.09h-.87A1.26,1.26,0,0,1,1080.38,201.67Z"/><path class="cls-135" d="M1085.68,201.75c-1.27,2.29.72,2.86,1.59,4C1084.3,205.72,1084,204.27,1085.68,201.75Z"/><path class="cls-30" d="M1088.19,213.68c.68,1.22,2.73.9,2.56,3.07l-.47.32a7.39,7.39,0,0,1-3.08-1.24h0Z"/><path class="cls-137" d="M1086.43,185.77l2.5-1a1.54,1.54,0,0,1-.5,2.1A2.2,2.2,0,0,1,1086.43,185.77Z"/><path class="cls-138" d="M1237.6,152.89l-.79-1.11c-.37-2.35,1.1-2.68,2.52-3.07a3.19,3.19,0,0,1,2.61,1v0a1.88,1.88,0,0,1,.51,1,5,5,0,0,1-.58,2.32,15.3,15.3,0,0,1-.72,1.6l-2.12-1.8A.94.94,0,0,1,1237.6,152.89Z"/><path class="cls-126" d="M1236.83,175.81a2.76,2.76,0,0,1,.61-.14c1.57.81.51,3.33,2,4.17a1.23,1.23,0,0,1-.29,1.29c-1.2.07-2.49.92-3.51-.54a3.06,3.06,0,0,1-.23-1.31A16,16,0,0,1,1236.83,175.81Z"/><path class="cls-139" d="M1244.45,160.05l.92,2.65c-1,.11-2.12.35-2.43-1.18C1242.66,160.15,1243.43,159.85,1244.45,160.05Z"/><path class="cls-57" d="M1239.31,162.75c-1.74-1.42,1.24-3.58-.58-5,1.1.09,1.49.91,1.57,2C1241.06,161.29,1240.23,162,1239.31,162.75Z"/><path class="cls-140" d="M1239.12,180.72a5.62,5.62,0,0,0,.35-.88h1.48c.17.94.55,2-.39,2.63-.57.39-1.05-.11-1.4-.67a.8.8,0,0,1-.21-.7Q1239,180.72,1239.12,180.72Z"/><path class="cls-141" d="M1239.31,162.75l1-2.93c2.25.27.41,2,.77,2.92a.76.76,0,0,1-1.16.24l-.34,0Z"/><path class="cls-142" d="M1239.9,163l1.16-.24c1.19,2.71-.79,1.77-1.74,2Z"/><path class="cls-143" d="M1243.75,177.47l-3.23-1.15C1241.88,175.68,1242.74,175.47,1243.75,177.47Z"/><path class="cls-144" d="M1241.94,150.79v-1l1.7,0q0,1.47,0,2.94l-.41.4a1.11,1.11,0,0,1-.87-.62C1242.19,152,1242.38,151.27,1241.94,150.79Z"/><path class="cls-145" d="M1241.15,154.73l0-1.86a1,1,0,0,1,1.71-.18l0,0a1.13,1.13,0,0,1,.11,1Z"/><path class="cls-146" d="M1243,153.73l-.11-1q.39,0,.78,0Z"/><path class="cls-126" d="M1242.79,180.76l-.86-1Z"/><path class="cls-147" d="M1127.91,75.86l-1.94-2c1.51,0,1.54-3.49,3.66-2.14.57-.49.22-1.52.86-2a1.88,1.88,0,0,0,.84-1.76c1.43-.77,1.27.66,1.54,1.5a10.05,10.05,0,0,1-2,5.37C1129.88,75.31,1129,76.15,1127.91,75.86Z"/><path class="cls-148" d="M1132.27,69.62c-.11-.69-.15-1.43-.93-1.6a1.18,1.18,0,0,0-.67-.31q-.95-.31-.11-.91c1.09-1.08,2.16-.85,3.22.06a2.3,2.3,0,0,1,.39,2.95C1133.48,70.31,1132.84,70.4,1132.27,69.62Z"/><path class="cls-149" d="M1111,68.86v0l-.46.36a2,2,0,0,1-.32-1.19,3.87,3.87,0,0,1,.41-1.18,3.54,3.54,0,0,1,.85-.79c.94,0,2.42-.49,2.3,1.15C1113.72,68.72,1112.16,68.71,1111,68.86Z"/><path class="cls-150" d="M1130.55,66.8q0,.46.11.91c-1.5-.16-3.15.74-4.44-.88.92-.11,1.94.1,2.55-1Z"/><path class="cls-151" d="M1130.5,69.78a2.22,2.22,0,0,1-.86,2l-.82-2.77C1129.57,68.7,1130.1,69.05,1130.5,69.78Z"/><path class="cls-152" d="M1111.53,66.09a6.32,6.32,0,0,1-.1.85.66.66,0,0,1-.94,0l-.14-.59.25-.54Z"/><path class="cls-152" d="M1109.72,65a1.5,1.5,0,0,1,.61,0,6.71,6.71,0,0,1,.27.75l-.16.19a.66.66,0,0,1-.81,0A.75.75,0,0,1,1109.72,65Z"/><path class="cls-153" d="M1094.36,118.65c.25,2.8-1.55,1.2-2.3,1.24-1.13.07-2.39-.66-2.06,1.66-.62,1.29-1.68,1.19-2.72,1.15l-.7-.2a1.29,1.29,0,0,1-1.08-.34A2.71,2.71,0,0,1,1085,121a2.88,2.88,0,0,1,1.53-2.61,9,9,0,0,0,3.82-1A6.25,6.25,0,0,1,1094.36,118.65Z"/><path class="cls-154" d="M1085.56,140.71c.14,2.8,3.58,4.93,1.24,8.23-.17.43-.45.57-.84.42-1-.58-.7-1.7-.84-2.64a1.19,1.19,0,0,1,.43-1C1085.36,144.07,1084.4,142.39,1085.56,140.71Z"/><path class="cls-154" d="M1087,138.56c-1.47-1.34-1.49.75-2.19,1.24-1.34-2-1.66-4,.21-5.92C1084.66,136,1087.56,136.3,1087,138.56Z"/><path class="cls-155" d="M1085.6,121.81l1,.71c-.23,1.48-.58,2.92-2.14,3.1-1.09.13-1.37-.83-1.46-1.87C1083.64,122.71,1084.25,121.59,1085.6,121.81Z"/><path class="cls-101" d="M1085.6,121.81l-2.63,1.94q0-.47,0-.95,0-3.1.09-6.2a1.21,1.21,0,0,0,.82-.17c1.73,1.31.71,3.8,1.74,5.4Z"/><path class="cls-156" d="M1087.28,122.71c.67-1.13,1.79-.86,2.72-1.15,1.55,2.71-2.6,2-1.89,4.2C1087.12,125,1087.32,123.82,1087.28,122.71Z"/><path class="cls-157" d="M1085.55,145.75v1c-.59,1.14-1,2.63-2.6,2q0-2,0-4Z"/><path class="cls-158" d="M1083.73,130.59s-.48.56-1,.54c-.84,0-1-1-1-1.74a1.62,1.62,0,0,1,1-1.21C1083.67,128.09,1083.83,128.93,1083.73,130.59Z"/><path class="cls-159" d="M1081.93,143.65l-1.52-1.88c.07-1.41.49-2.22,1.76-1.22C1083.63,141.7,1082.53,142.66,1081.93,143.65Z"/><path class="cls-160" d="M1081.76,135.3c-.38.48-.6,1-.93,1.11s-.76-.26-.88-.56c-.24-.6.24-.85.64-.88A3.93,3.93,0,0,1,1081.76,135.3Z"/><path class="cls-161" d="M1193.66,67.79c2.23.3,4.53.45,5.94,3a3,3,0,0,1-2.46,1.08,3.28,3.28,0,0,1-2.71-2l-1-.11C1193.13,69,1193,68.31,1193.66,67.79Z"/><path class="cls-162" d="M1187.3,68.35c-1.83,2.15-2.82,4-4.83,3.78-.25,0-.73-1-.64-1.12C1183,68.93,1185,69.6,1187.3,68.35Z"/><path class="cls-163" d="M1197,70.8l2.6,0-.82,3.15c.54,1.95,0,2.61-1.66,1.79a3.46,3.46,0,0,1-.15-.83V73.74A2.36,2.36,0,0,1,1197,70.8Z"/><path class="cls-164" d="M1180.44,67.78c0-2.29.58-3.56,2.71-2C1183,67.76,1182,68.22,1180.44,67.78Z"/><path class="cls-165" d="M1197,70.8q0,1.47,0,2.94c-2-.29-2.27-2.15-2.55-4Z"/><path class="cls-166" d="M1191.86,72.84c-.79.9,0,4.54-2.72,2.15C1190,74.2,1190.29,72.44,1191.86,72.84Z"/><path class="cls-167" d="M1178.88,72.61a4.66,4.66,0,0,0-3.45-.93c.94-1.36,2.26-.78,3.44-.92Z"/><path class="cls-168" d="M1193.66,67.79l-.27,1.89c-1-.73-.64-1.8-.53-2.8Z"/><path class="cls-98" d="M1171.09,221.78a2.78,2.78,0,0,1-2.55,2.09c-3.25.18-1.57-2.5-1.77-4.09a.94.94,0,0,1,1-.11c.93.66,2,1,2.94,1.62Z"/><path class="cls-169" d="M1159.18,215.59l.75,1-1.78,5c-.65.62-1,.07-1.41-.44a5.51,5.51,0,0,1-.62-3.17,4.41,4.41,0,0,1,1.56-1.76A2.35,2.35,0,0,1,1159.18,215.59Z"/><path class="cls-170" d="M1157.24,220.86l.9.74c.83,1.35-.17,1.81-.87,2.43l-1.65-.48-.25-1.76C1155.79,220.91,1156.28,220.25,1157.24,220.86Z"/><path class="cls-171" d="M1167.63,219.79l-.86,0q0-1,0-1.91c.24-1,1.07-.94,1.69-1.25s.93.14,1.12.75a2,2,0,0,1-.42,1,9.52,9.52,0,0,1-1.09,1.16Z"/><path class="cls-172" d="M1162.45,226.71l-.71-1.88c.65-.8,1.42-1.4,2-.06S1163.22,226.35,1162.45,226.71Z"/><path class="cls-173" d="M1124.34,215.72a1.71,1.71,0,0,0,.15-.84c1.38-1.09,2.87-.62,4.34-.41a3.63,3.63,0,0,1,1.1,3.06c-.56,1.57-2,2.07-2.9,3.23a1.69,1.69,0,0,1-1.73-1C1124.17,218.67,1125.3,216.86,1124.34,215.72Z"/><path class="cls-174" d="M1239.19,149.72a2.66,2.66,0,0,1-.44-.8,16.94,16.94,0,0,1,1.39-9.39c-.76,2.09.42,4.15.07,6.24.75.88,2.28,1.16,1.72,3q0,.48,0,1Z"/><path class="cls-175" d="M1240.12,139c-3.6-2.5,2-3.12.79-5.12a3,3,0,0,1,.91-2.28.87.87,0,0,1,1,.26C1242.08,134.32,1243.39,137.82,1240.12,139Z"/><path class="cls-176" d="M1241.93,148.79c-.52-1.05-1.89-1.46-1.72-3l2.59-1C1243.3,146.34,1244.73,148.18,1241.93,148.79Z"/><path class="cls-177" d="M1242.82,131.87q-.4-.14-.82-.25a2.72,2.72,0,0,1-.8-2.22c.33-1.5.78-2.74,2.39-1.52l0,0A2.74,2.74,0,0,1,1242.82,131.87Z"/><path class="cls-178" d="M1179.73,220.68l-1.65,1.16-1.78-.06c-2.08-.65-4.12-1.36-4-4.6a2.19,2.19,0,0,1,2.93-1.57c1.5.18,2.86-1.17,4.4-.61a1.89,1.89,0,0,1,1.2,1.32,3,3,0,0,1-1.07,2.27Z"/><path class="cls-179" d="M1196.06,217.55l.85-1c1.71.77,2.09,2.31,1.86,4.22l-.89,0c-1.11,0-1.69-.7-1.74-2Z"/><path class="cls-180" d="M1179.8,218.6l.74-2a.58.58,0,0,1,.94,0C1182.83,219.53,1181.08,218.78,1179.8,218.6Z"/><path class="cls-181" d="M1181.49,216.67l-.94,0-.94-.92c-.08-1.54.49-2.26,1.86-2l1,2Z"/><path class="cls-182" d="M1246.11,72.65c-.48,1.24-1.55,1.56-2.46,2.13h-.79l-.43-.44a4.82,4.82,0,0,1-.49-2.56,3.66,3.66,0,0,1,0-4C1244.07,68.55,1245.32,70.34,1246.11,72.65Z"/><path class="cls-183" d="M1242.86,74.78c-.35,1,.94,2-.06,3s-2.09,1.83-3.51,1v0c-.13-2.22,1.71-2.72,2.62-4q.42-.56.89-.06Z"/><path class="cls-184" d="M1233.32,74.69l-2.55-.14c-.42-2.37-2.89.42-3.37-1.8l5.12,0a3.86,3.86,0,0,1,.82.94Q1233.35,74.21,1233.32,74.69Z"/><path class="cls-185" d="M1229.19,66.76c2.31,1.51.12,2.69-.22,4l-.85-1a2.5,2.5,0,0,1-.59-1.42C1227.79,67.4,1227.69,65.95,1229.19,66.76Z"/><path class="cls-186" d="M1242.81,74.76l-.89.06a1.82,1.82,0,0,1,0-3C1242.94,72.49,1242.81,73.65,1242.81,74.76Z"/><path class="cls-187" d="M1233.34,73.74l-.82-.94,2.72-.54a5.75,5.75,0,0,1-.2,1.32C1234.58,74.7,1233.93,74,1233.34,73.74Z"/><path class="cls-184" d="M1228.09,68.65l0,1.11-1,1.3c-.67,0-1-.48-1.29-1.1A3.29,3.29,0,0,1,1226,68a1.36,1.36,0,0,1,.93-.65C1227.48,67.55,1227.71,68.2,1228.09,68.65Z"/><path class="cls-36" d="M1147.79,71.89c0,3.11-3,.69-3.57,2.64-1.2,1.18-1.75,4.16-4.15,2a2.84,2.84,0,0,1-.55-1.17c-1-1.3,3.47-3-.21-4.1-.31-.11-.64-1.55-.94,0-.43,1.25-.21,2.63-.63,3.87-2.84,3.93-3.43.6-4.32-1.79,0-1.25.58-2.41.39-3.68q0-1.42-.06-2.84a2.12,2.12,0,0,0,1.92-1.07c1.13-2,2.82-.91,4.3-1l4.27,1.93C1147.09,66.92,1148.35,68.57,1147.79,71.89Z"/><path class="cls-188" d="M1152.71,61l.38-2.35c.94.13,2,.72,2.47-.91a4.74,4.74,0,0,1,.71,0l.47.26a3.84,3.84,0,0,1,.87,2.18,5.61,5.61,0,0,1-.81,2.3c-.78,1.1-1.2,2.8-2.91,2.33l-1-1.15C1151.67,62.85,1151.54,62,1152.71,61Z"/><path class="cls-189" d="M1147.79,71.89c-.47-2.37-1.32-4.41-3.53-5.19,3.38-1.51,4.93,3.23,7.9,3.11l-.93,2a.56.56,0,0,1-.84.18Z"/><path class="cls-190" d="M1152.71,61l.17,2.7c-2,.38-3-.39-2.49-2.88l1.68,0A1.73,1.73,0,0,0,1152.71,61Z"/><path class="cls-191" d="M1153.89,64.81l2.47-3.11.47.53a3.82,3.82,0,0,1-.18,3.61,1,1,0,0,1-1.21.22l-1.63-.35A3.05,3.05,0,0,1,1153.89,64.81Z"/><path class="cls-192" d="M1083,148.78l2.6-2c1,.68.06,1.33,0,2A5.46,5.46,0,0,1,1084,154a.8.8,0,0,1-1-.31C1082.63,152.07,1081.79,150.43,1083,148.78Z"/><path class="cls-193" d="M1083,153.72l.88,0c2.06-.31,2.39,2.07,3.59,3.11l-.79,1q-.61.73-1.1-.11C1084.71,156.41,1081.94,156.68,1083,153.72Z"/><path class="cls-194" d="M1080.37,161.77a2.23,2.23,0,0,0-.85-2c1.16-1.76,2.3.36,3.45,0A2.65,2.65,0,0,1,1080.37,161.77Z"/><path class="cls-194" d="M1085.55,157.78l1.1.11c-1.38,1.63,2.12,3.46-.15,5.05l-.95-2.16Q1085.55,159.28,1085.55,157.78Z"/><path class="cls-195" d="M1172,67c-1.6.31-3.53-.77-4.43,2.11-.51,1.65-2.23.43-3.37.74-.52-1,0-1.77.35-2.59a10.91,10.91,0,0,1,4.11-4.16,3.91,3.91,0,0,1,1.88-.35c.87.11,1.76.16,2.28,1.17l1.72,1.91C1174.31,68.12,1173.11,67.48,1172,67Z"/><path class="cls-196" d="M1172.78,63.91l-2.57-.29a1.43,1.43,0,0,1,.87-1.89c1.47.67,3.3-.87,4.57,1C1175,64.06,1173.77,63.61,1172.78,63.91Z"/><path class="cls-197" d="M1172,67c.9-.23,2,0,2.54-1.16.55,0,1.87-1.28,1.3.69-.29,1-1.55,1.64-2.37,2.45C1172.38,68.85,1172.2,67.89,1172,67Z"/><path class="cls-198" d="M1239.47,194.78q-.12-.48-.22-1l3.54-3c.28.86.77,1.69-.11,2.51-2.43,2.28-.23,2.13,1,2.48q0,.49,0,1C1241.13,199.42,1240,197.92,1239.47,194.78Z"/><path class="cls-199" d="M1236.64,182.83l-1.59-.23c-1.76-1.69-1.21-2.52.78-2.82.87,1.4,2.13.9,3.29.94l0,1.07Z"/><path class="cls-72" d="M1085.88,166.88c-1.76,2.56,1.15,2.57,1.6,3.93a2.84,2.84,0,0,1-1,2.93c-.82-.36-1.63-.82-2.43,0-.71-.35-.69-.94-.41-1.63C1084.88,170.66,1084,168,1085.88,166.88Z"/><path class="cls-200" d="M1079.51,172.79v-2l.88-3c1.82,1.67-.21,3.31,0,5Z"/><path class="cls-201" d="M1083.68,172.15l.41,1.63a2,2,0,0,1-2,1.27C1082.17,173.77,1081.33,171.77,1083.68,172.15Z"/><path class="cls-202" d="M1127,220.75c.09-2,1.1-2.92,2.74-3.07a2.18,2.18,0,0,1,1.64-.84,3.23,3.23,0,0,1,1.8.48,2,2,0,0,1,.74,2.45v1c-.85,1.59-1.72.29-2.59,0a3.15,3.15,0,0,1-3.46,0Z"/><path class="cls-203" d="M1143.35,215.56l.06-1.66a1.69,1.69,0,0,1,2.39-.57,1.77,1.77,0,0,1,.66,1.26,8.52,8.52,0,0,1-1.27,4.19h0Z"/><path class="cls-204" d="M1133.95,219.76l-.87-1.89a1.1,1.1,0,0,1,1-1.08l1.77,1.65A1.88,1.88,0,0,1,1133.95,219.76Z"/><path class="cls-205" d="M1087.07,77.76c-1.43,2,1.25,5.06-1.22,6.85a2,2,0,0,1-1.82,1c-1.37-.35-2.86-.55-2.83-2.79l.86-1.05c.26-1.09,2.28-.07,1.8-2-.27-.83-.55-1.65.15-2.38a2,2,0,0,1,2.31.32Z"/><path class="cls-206" d="M1086.33,77.67l-2.49.12a.52.52,0,0,1-.87,0v-3a.5.5,0,0,1,.88,0C1084.45,76,1086,76.12,1086.33,77.67Z"/><path class="cls-207" d="M1091.67,69c.79-.16,2-.62,2.08.57.15,1.74-1.21,1.19-2.11,1.16Z"/><path class="cls-208" d="M1083.85,74.81l-.88,0a5.81,5.81,0,0,1,1.73-4C1084.55,72.15,1085.08,73.73,1083.85,74.81Z"/><path class="cls-209" d="M1234.12,217.64a2.25,2.25,0,0,1,.21-.86c1.48-.24,2.82-1.35,4.4-.93a1.93,1.93,0,0,1,0,1.21,10,10,0,0,0-1.08,2.71,1.74,1.74,0,0,0-1.72,1A3.22,3.22,0,0,1,1234.12,217.64Z"/><path class="cls-210" d="M1237.61,219.77c-2.13-2.28.09-2.41,1.15-3.12a1.85,1.85,0,0,1,2.32,1.29c0,1.09.08,2.23-.91,2.91C1239.41,220.19,1238.93,218.65,1237.61,219.77Z"/><path class="cls-211" d="M1241.08,217.94l-2.32-1.29a1.72,1.72,0,0,1,0-.8c.6-.41.73-2.1,1.76-1.19A2.48,2.48,0,0,1,1241.08,217.94Z"/><path class="cls-212" d="M1239.47,194.78c1,2,2.25,3,4.23,2,.6.52,1.87.7.81,2.08-.63,1.13-1.82.22-2.56.94l-2.17-.15C1238.81,198.08,1237.83,196.54,1239.47,194.78Z"/><path class="cls-129" d="M1241.95,199.77c.62-1.17,1.61-1,2.56-.94l.87,2.79c-.52.66-1.07.76-1.69.17C1242.14,202.24,1242.69,200.26,1241.95,199.77Z"/><path class="cls-213" d="M1246.14,203.64c.14,1.12,0,2.38,1,3.13-.27,1.33-.72,2.56-1.58.51-.4-.94-.12-2.27-.16-3.42A.47.47,0,0,1,1246.14,203.64Z"/><path class="cls-214" d="M1246.14,203.64l-.76.22a1.71,1.71,0,0,1-1.69-2.07l1.69-.17A1.87,1.87,0,0,1,1246.14,203.64Z"/><path class="cls-89" d="M1197.84,62.74a2,2,0,0,1,.89-1.88,5.78,5.78,0,0,0,1.71,3.9l0,1a1.5,1.5,0,0,1-2.52.38C1196.68,65.11,1197.47,63.9,1197.84,62.74Z"/><path class="cls-215" d="M1203.9,76l-.85-.42a2.09,2.09,0,0,1,.91-1.89c1.37-2.26,2.3-.81,3.26.51a1.55,1.55,0,0,1,.44,1.23c-.61,1.45-1.42,2.33-2.87,1.32Z"/><path class="cls-216" d="M1207.14,74.61c-1-.58-1.82-2-3.18-.89q0-1,0-1.93l2.52-2c.46.2.27.91.68,1.15l.24,2.81C1207.67,74.17,1207.58,74.45,1207.14,74.61Z"/><path class="cls-26" d="M1207.34,217.93c-.22,3.7-3.12,3-4.86,3.39-1.47.36,1.25-2.21-.59-2.71-.7-1-2.15-.76-2.73-2a3.28,3.28,0,0,1-.12-2c1.41-2.58,2.63-.76,3.9.21.68.58,1,1.8,2.17,1.54,1,0,1.62.66,2.32,1.24Z"/><path class="cls-217" d="M1199.56,214.64l.11,2.28a1.3,1.3,0,0,1,0,1.77,2.38,2.38,0,0,1-.88,2.06l-1.85-4.22,1-.94c.37-.3.49-.85.85-1.16A.72.72,0,0,1,1199.56,214.64Z"/><path class="cls-218" d="M1199.64,218.69l0-1.77c1.14-.15,2.32-.35,2.23,1.68Z"/><path class="cls-219" d="M1100.24,69.77c-.48-1.91.91-3.27,1.07-5,.93-.25,1.51.27,1.92,1.17.46,2.06-1.13,2.67-2,3.78l-.17.21A2,2,0,0,0,1100.24,69.77Z"/><path class="cls-220" d="M1083,77.77l.87,0,.87,2c-.6,1.26-1.37,1.94-2.6,1l-.86-2Z"/><path class="cls-221" d="M1219.47,213.77c1.79,1.57,4,1.84,6,2.79l.83.55-1.7,2.67h-.82c-.88.22-1.75-.52-2.63,0C1219.53,218.19,1219.4,216,1219.47,213.77Z"/><path class="cls-56" d="M1221.19,219.77c1.11-.46-.45-2.31.66-2.25.69,0,1.31,1.45,2,2.25C1222.94,221,1222.07,221.06,1221.19,219.77Z"/><path class="cls-222" d="M1145.18,218.77c.12-1.39-.43-3,.93-4,1.13-.45,1.54-1.89,2.55-2.5a2.38,2.38,0,0,1,1.69-.23c1.24.39,1.63,1.73,2.32,2.74a1.9,1.9,0,0,0,2,.67,1.66,1.66,0,0,1,1,.17,2.94,2.94,0,0,1,.71,2.18l.84,3-1.87.92c-1.2,1.49-2.23,3.4-4.62,2.48,0-2.2,5.88-4,.44-6.47-1,1.18-2.24,1.12-3.51,1A1.89,1.89,0,0,0,1145.18,218.77Z"/><path class="cls-223" d="M1147.68,218.78c.93-1.48,2.29-.89,3.51-1-.09,3.14-1.54,2.92-3.35,1.83A2.42,2.42,0,0,0,1147.68,218.78Z"/><path class="cls-224" d="M1235.82,101.91c1.32-3,1.49-6.63,3.69-9.15,1.41-1.12,2.38-.21,3.28,1l.09.09c-.32,1.67,1.34,2.49,1.32,4.32-1.31.28-3.16-2.49-4,.64-.14,1,.5,1.94.06,2.93l-.13.18a2.57,2.57,0,0,1-2.43,1.32A3.22,3.22,0,0,1,1235.82,101.91Z"/><path class="cls-225" d="M1237.89,102.81l2.24-.92.92,2.76a2.78,2.78,0,0,1-.74,1.1,4.21,4.21,0,0,1-3.53.88,2.71,2.71,0,0,1-1.09-.67,2.38,2.38,0,0,1-.21-1.38A2.11,2.11,0,0,1,1237.89,102.81Z"/><path class="cls-226" d="M1240.2,105l.85-.31,1.72-.83q-.13,2.49-.26,5l-1.45.94c-.65.37-1.08,0-1.47-.57C1238.59,107.53,1239.27,106.22,1240.2,105Z"/><path class="cls-227" d="M1240.26,101.71c-.77-1-1.38-1.92-.06-2.93C1240.73,99.74,1243,100.66,1240.26,101.71Z"/><path class="cls-228" d="M1233.26,216.91a2,2,0,0,0,.08.77l0,3.1c-.73.19-1.51,1.28-2.2.27-1-1.4.6-2.61.47-4C1232.07,216.05,1232.64,216.14,1233.26,216.91Z"/><path class="cls-229" d="M1101.92,216.58c.3-2.59,2.76-.27,3.43-2l.08,2.26c.55.88,1,1.82,1.62,2.68l.09,1.29c-2,2.53-4-1.58-6.07,0l-.84,0-1.71,1a.62.62,0,0,1-.25-.65q.1-.34.22-.34c-.63-1.16-1.64-1-2.59-1-.07-1,.2-1.54,1.16-1.14l1.11,0C1099.13,217.22,1100.81,217.57,1101.92,216.58Z"/><path class="cls-230" d="M1107.06,219.49c-1.09-.45-2.64-.52-1.62-2.68C1107.09,216.81,1107.37,217.91,1107.06,219.49Z"/><path class="cls-231" d="M1243.6,127.89c-1.11,0-1.6.75-1.84,1.87a2,2,0,0,1-2.32.69c-2.22-1-3.67-2.44-2.54-5.5a5.82,5.82,0,0,1,1.4-2.28c.72-.2,1.13.05,1.08,1,.73,1.45,1.08,3.1,3.3,2.09C1244.22,125,1243.38,127.07,1243.6,127.89Z"/><path class="cls-232" d="M1242.77,115.63q0,2.61,0,5.23a1.51,1.51,0,0,1-1.6.87,1.47,1.47,0,0,1-1.28-1,8,8,0,0,1,.15-2.57,5.33,5.33,0,0,1,.8-2.43.8.8,0,0,1,1,0Z"/><path class="cls-233" d="M1240.23,120.69l1,1c-.13,1.24-.37,2.35-1.82,1.93l-.85-1a1.21,1.21,0,0,1-.25-1,2.4,2.4,0,0,1,1.06-1.21A.8.8,0,0,1,1240.23,120.69Z"/><path class="cls-234" d="M1090.75,216.75l1.77-.11.4.39a3.37,3.37,0,0,0,1.67,1.3c.46.36.87.74.5,1.47-1.44,3.11-2.88,1.89-4.32,0a2.61,2.61,0,0,1-.16-2.87Z"/><path class="cls-235" d="M1090.6,216.91l.16,2.87a1.76,1.76,0,0,1-1.74,1c.8-2.25-.14-3.43-1.89-4.11a7.22,7.22,0,0,0,.08-.83A3.74,3.74,0,0,1,1090.6,216.91Z"/><path class="cls-236" d="M1098.51,220.76q0,.5,0,1,0,1,0,2c-1.07-.09-2.56.34-2.39-1.73C1096.27,220.41,1097.58,220.87,1098.51,220.76Z"/><path class="cls-120" d="M1095.08,219.78l-.91-1a1.46,1.46,0,0,1-.09-1.35c.8-.75,1.57-1.78,2.65-.5l.34,1.72-1.16,1.14Z"/><path class="cls-237" d="M1207.13,70.93l-.68-1.15a1.9,1.9,0,0,1,1.8-1.14C1209,70.14,1208.23,70.64,1207.13,70.93Z"/><path class="cls-238" d="M1127.9,220.77c1.15,0,2.31-1,3.46,0-.28,4.41-2.27.75-3.44,1Q1127.9,221.28,1127.9,220.77Z"/><path class="cls-239" d="M1081.21,82.82l2.62,2.1c.86,2-.3,2.38-1.56,2.73a2,2,0,0,1-1.89-1A2.9,2.9,0,0,1,1081.21,82.82Z"/><path class="cls-240" d="M1082.1,80.78l2.6-1c.4.85,2.64,1.89-.13,2.41a7.4,7.4,0,0,1-2.51-.42Q1082.1,81.28,1082.1,80.78Z"/><path class="cls-241" d="M1080.38,86.67l1.72.1c.68,2.1,0,2.71-1.73,2.07l-.78-.25a4.42,4.42,0,0,0-.14-.82Z"/><path class="cls-138" d="M1239.29,78.83a5.19,5.19,0,0,1,3.51-1l.86,3q0,1-.07,2l-2.56.1-.32-.48a6,6,0,0,0-1.22-2.59A4,4,0,0,1,1239.29,78.83Z"/><path class="cls-242" d="M1246.26,85.77v1a1,1,0,0,1-1.71-.15c-.08-1-1.89-1.36-.87-2.84A2.65,2.65,0,0,1,1246.26,85.77Z"/><path class="cls-243" d="M1102.85,62.8c1.37.8,3.09-.43,4.34,1l.31.61c0,.23-.09.46-.13.69a3.71,3.71,0,0,1-1.74,1.9,1.53,1.53,0,0,1-1.61-.66C1103.58,65.21,1102.24,64.43,1102.85,62.8Z"/><path class="cls-244" d="M1102.85,62.8l1.7,3a1.08,1.08,0,0,1-1.74,0l-1.5-1-.24-1Z"/><path class="cls-245" d="M1107.23,64.78q0-.48,0-1l1-.27.94,1.11A1.23,1.23,0,0,1,1107.23,64.78Z"/><path class="cls-246" d="M1242.79,93.73l-3.28-1c-.64-.73-1.91-2.23-.75-2.47,3.21-.65.94-3.09,1.5-4.51a.47.47,0,0,1,.83,0C1242,88.35,1244.29,90.5,1242.79,93.73Z"/><path class="cls-247" d="M1241.1,85.8l-.42,0-.41,0c-.36-1.7-2.85-2.84-1-5.11.94.33,1.23,1.37,1.75,2.15v0A2.88,2.88,0,0,1,1241.1,85.8Z"/><path class="cls-248" d="M1244.54,86.63l1.71.15-.07,1.86q-.4.09-.79.22C1244.32,88.52,1243,88.28,1244.54,86.63Z"/><path class="cls-249" d="M1220.35,63.78l1.74,3a1.93,1.93,0,0,1,1.12,2,3.23,3.23,0,0,1-.58,1.07,2.3,2.3,0,0,1-1,.54c-1,.06-2.07-.12-3.11,0a2.61,2.61,0,0,1-1.38-.8,8.13,8.13,0,0,1-1.46-1.76,1.18,1.18,0,0,1,.22-1.1l0,.07A4.85,4.85,0,0,1,1220.35,63.78Z"/><path class="cls-250" d="M1220.35,63.78c-1.17,1.59-2.9,2.07-4.43,3-.39-.94-1-1.82-.56-3l1.48,0c.78-.66,1.49-1.55,2.61-1Z"/><path class="cls-125" d="M1222.88,68.55l-.79-1.77,2.45-2.11.1.09c.57.48.29,1.49.9,1.94l0,.05a1.2,1.2,0,0,1,0,1.38C1224.8,69.18,1224,69.9,1222.88,68.55Z"/><path class="cls-251" d="M1219.46,62.74l-2.61,1,.17-1q.35-.49.67-1l-.07-.07,1,.12q.42-.72.83,0Q1219.46,62.26,1219.46,62.74Z"/><path class="cls-252" d="M1219.45,61.78h-.83a2.17,2.17,0,0,1,.86-2Z"/><path class="cls-253" d="M1209.12,72.8c1.84-1.47.6-4.56,2.39-6.05,1.18,0,2.28.6,3.46.65a2,2,0,0,1,.68,1.06c-.22,2-1.86,2.82-2.62,4.38a3.24,3.24,0,0,1-1,.72A2.45,2.45,0,0,1,1209.12,72.8Z"/><path class="cls-254" d="M1209.12,72.8l3.48,0c-1.05,3.14-2.92,3.36-5.24,1.95l-.23-.17a4.32,4.32,0,0,0,.23-.87A1.73,1.73,0,0,0,1209.12,72.8Z"/><path class="cls-255" d="M1215,67.84c-1.16-.39-2.69.78-3.5-1.1l1-1a4.89,4.89,0,0,0,3.39.89,7.55,7.55,0,0,1,.17,1Q1215.65,68.41,1215,67.84Z"/><path class="cls-256" d="M1171.09,61.73l-.87,1.89-1.64.24a3.53,3.53,0,0,1-2.92-1,3.3,3.3,0,0,1-.41-1.42,3.53,3.53,0,0,1,.34-1.48c1.15-1.43,2.35-1.34,3.59-.17l1.76,1.07Q1171,61.31,1171.09,61.73Z"/><path class="cls-257" d="M1169.18,59.82c-1.14,0-2.4-.5-3.28.86-1.11,1.2-1.93.47-2.71-.54a2.31,2.31,0,0,1-.06-1.42,2.78,2.78,0,0,1,1.63-1c1.18-.14,2.36-.58,3.55,0Z"/><path class="cls-258" d="M1168.3,57.7a3.8,3.8,0,0,1-3.28,1c-.3-3.47,1.33-3.07,3.22-2.16l.29.3A1.14,1.14,0,0,1,1168.3,57.7Z"/><path class="cls-259" d="M1228.09,68.65l-.94-.91q-.39-.35-.24-.68t.27-.32q.14-.45.24-.92l1.76.94A2.1,2.1,0,0,0,1228.09,68.65Z"/><path class="cls-260" d="M1172.84,216.82c0,2.75,2.28,3.32,3.45,5l-.88,1-3.46-1a4.3,4.3,0,0,1-.85-3.52,3.61,3.61,0,0,1,.55-1.37A.8.8,0,0,1,1172.84,216.82Z"/><path class="cls-98" d="M1172,217.8q0,2,0,4h-.86a6,6,0,0,0-1.35-.92c-.86-.77-1.72-1.54-1.27-3l1-.08a1.6,1.6,0,0,1,1.54-.64A2.16,2.16,0,0,1,1172,217.8Z"/><path class="cls-261" d="M1107.23,64.78l1.93-.12a.65.65,0,0,1,.56.37,7,7,0,0,0,0,.76,1.67,1.67,0,0,1-1.73.61,1.25,1.25,0,0,1-.86-1.61Z"/><path class="cls-262" d="M1163.35,59a3.25,3.25,0,0,1,.07.67.92.92,0,0,1-1,.36,3.67,3.67,0,0,1-1.18-2.17,3.31,3.31,0,0,1,.1-1.26,2.61,2.61,0,0,0-.62-2.81l-.93-.1c.2-1.16.54-2.14,1.79-2.07a2.59,2.59,0,0,0,2.56.12l.07.13a11.37,11.37,0,0,1,.5,4.31A11.47,11.47,0,0,1,1163.35,59Z"/><path class="cls-263" d="M1241.91,115.68a1.4,1.4,0,0,1-.73.3,3.69,3.69,0,0,1-2.59-.78c-.75-1-.9-2.27-1.46-3.35a5.32,5.32,0,0,1-.24-1.24,3.13,3.13,0,0,1,.49-1.82,4.08,4.08,0,0,1,2.82-.08l.87,1C1242.66,111.46,1241.66,113.69,1241.91,115.68Z"/><path class="cls-264" d="M1084.75,88.76c-.55,1.85,4.67,2,1.06,4.73l2.53,2.29a4.2,4.2,0,0,1,.14,2.08,3.38,3.38,0,0,1-3,3l-1.52.89c-.65-1.24-2.24.66-2.73-1.11a7,7,0,0,0-.81-3.92c.19-1.75,1.28-3.1,1.46-4.93S1082.74,88.46,1084.75,88.76Z"/><path class="cls-117" d="M1090.73,100.8c-.37,1.52-1.7,1.35-2.58,2l-2.71-1.87,2.59-3.14A7.73,7.73,0,0,1,1090.73,100.8Z"/><path class="cls-265" d="M1089,104.59a3.38,3.38,0,0,1,.82.25c1.44,1.72,1,3.33-.21,4.9a2.09,2.09,0,0,1-1.9.52,1.75,1.75,0,0,1-.94-1,4.37,4.37,0,0,1-.14-2.21,3.2,3.2,0,0,1,.71-1.2Z"/><path class="cls-266" d="M1087.3,105.84q0,.46,0,.91c-1.69,1.43-2.83-.25-4.13-1l-.12-2C1084.86,103.29,1086,104.84,1087.3,105.84Z"/><path class="cls-267" d="M1085.6,121.82c-1.76-1.29-1.54-3.44-1.74-5.4l.84-2.66a.78.78,0,0,1,1-.09c.88,1.31.83,2.89,1,4.42,0,.22,0,.44,0,.66C1086.17,119.7,1085.42,120.54,1085.6,121.82Z"/><path class="cls-268" d="M1084.67,112.82l-1.78-2.14.06,0a1.34,1.34,0,0,1,1.61-.19,1.86,1.86,0,0,1,.48,1.78Z"/><path class="cls-269" d="M1085.57,113.77l-.88,0q0-.47,0-.93l0-.08a1.06,1.06,0,0,1,1.56-.16,1.5,1.5,0,0,1,.29,1.21A.61.61,0,0,1,1085.57,113.77Z"/><path class="cls-270" d="M1217.69,61.72l-.67,1A.77.77,0,0,1,1217.69,61.72Z"/><path class="cls-271" d="M1084.75,88.76c-3,1.56-.82,6.87-4.37,8q-.42,0-.84,0c0-2.7,1.28-5.2.84-8a1.73,1.73,0,0,0,1.73-2.07c1,0,1.66-.6,1.72-1.86l2-.3C1088.87,87.2,1084.39,87.12,1084.75,88.76Z"/><path class="cls-272" d="M1083.14,105.76c1.71-1.51,2.61,1.46,4.13,1q0,1,0,2a4.55,4.55,0,0,1-1.65,1.47,1.89,1.89,0,0,1-1,.08,1.24,1.24,0,0,1-.88-.59C1084.27,108.26,1082.41,107.26,1083.14,105.76Z"/><path class="cls-273" d="M1083.71,109.73l1,.07.27.49-.28.49-1.75-.06Z"/><path class="cls-274" d="M1163.35,59l.84-3.21a1.68,1.68,0,0,1,1.7-.93c1,.17,2.46-.53,2.34,1.7-1.18.51-3-.27-3.22,2.16Z"/><path class="cls-275" d="M1165.9,54.84a1.71,1.71,0,0,1-1.7.93,3.37,3.37,0,0,1,0-3.91C1166.08,51.87,1165.84,53.46,1165.9,54.84Z"/><path class="cls-276" d="M1156.27,57.74l.16-1.9c1.36-.75,2.86-2.26,3.45.9a1,1,0,0,1,.26.78c0,.28-.08.43-.14.43a2.27,2.27,0,0,1-2.24.6,2.07,2.07,0,0,1-1-.77A4.06,4.06,0,0,0,1156.27,57.74Z"/><path class="cls-277" d="M1160.72,53.77c1.9.37,2.27,1.34.88,3a.54.54,0,0,1-.9,0Z"/><path class="cls-278" d="M1160.7,56.75l.9,0,.07,1-.18.57a2.36,2.36,0,0,1-.85.7l-.53,0-.46-.3a.82.82,0,0,1,.19-1l0-1Z"/><path class="cls-127" d="M1227.18,66.74q0,.5,0,1l-.8.12c-.29.28-.54.23-.76-.11l0-1Z"/><path class="cls-127" d="M1225.54,66.7a1.88,1.88,0,0,1-.9-1.94.67.67,0,0,1,.76.05Z"/><path class="cls-146" d="M1242.83,152.7l-1.71.18.82-2.09A2.15,2.15,0,0,1,1242.83,152.7Z"/><path class="cls-279" d="M1089,109.75a7.48,7.48,0,0,0,.73-4.9c.89-.88,1.79-1.75,2.73-.07l.08,1.1a2.87,2.87,0,0,1,.41,2.53,3,3,0,0,1-3.5,1.79Z"/><path class="cls-280" d="M1094.19,110.25c.88,1,2.6,1.55,1.14,3.51q-.25.17-.49.36a2.48,2.48,0,0,1-2.82-2.6c.82-.79.11-1.72.17-2.58a1.72,1.72,0,0,1,.41-.24C1093.79,108.3,1094.71,108.28,1094.19,110.25Z"/><path class="cls-281" d="M1094.19,110.25c0-1.2-.76-1.44-1.59-1.54q0-1.42,0-2.84C1097.51,105.17,1095.26,108,1094.19,110.25Z"/><path class="cls-282" d="M1103,72.44l-.16-2.34a1.25,1.25,0,0,1,1.59-.84,3.05,3.05,0,0,1,1.94,2.75C1105.58,75.89,1104.34,74.76,1103,72.44Z"/><path class="cls-283" d="M1106.35,72l-2-2a3.43,3.43,0,0,1,.93-2.49,3.14,3.14,0,0,1,3-.06,5.15,5.15,0,0,1,1.12.54,1.94,1.94,0,0,1,.69,1.08c-.69,1.44-2,2-3.08,2.87l-.29.12Z"/><path class="cls-284" d="M1106.94,72c0-2.14,1.86-2.16,2.81-3.22q.29-.52.73-.17a1.56,1.56,0,0,0,.56.32C1109.37,69.37,1110.13,74.18,1106.94,72Z"/><path class="cls-285" d="M1134,72.71c-1.66-.55-1.85,2.43-3.48,1.95l1.79-5,1.56.08C1136,70.59,1134.86,71.65,1134,72.71Z"/><path class="cls-286" d="M1110.48,68.57a1,1,0,0,1-.73.17l-1.21,0a1.42,1.42,0,0,1,1-1.44l.59.06.46.43A1.6,1.6,0,0,1,1110.48,68.57Z"/><path class="cls-287" d="M1110.61,66.78a5.48,5.48,0,0,1,.82.16l-.81.83,0,0a.63.63,0,0,1-.2-.65Q1110.5,66.79,1110.61,66.78Z"/><path class="cls-288" d="M1110.61,66.78q0,.49,0,1a4.28,4.28,0,0,1-.85,0c-.56-.52-1.42-.12-1.91-.83a1,1,0,0,1,.19-1.08h1.69a2.79,2.79,0,0,1,.74.18A2.89,2.89,0,0,1,1110.61,66.78Z"/><path class="cls-289" d="M1092.63,110.84c-.14,1.88,1.38,2.26,2.2,3.28a1.39,1.39,0,0,1-1.13,1.74,1.48,1.48,0,0,1-1.68.44,15.33,15.33,0,0,1-1.57-3.72C1090.9,111.52,1091.13,110.11,1092.63,110.84Z"/><path class="cls-290" d="M1091.64,115.84h2.06l.66,2.8c-1.59.12-3.22.61-4.62-.75a2.35,2.35,0,0,1,.64-1.42A1.71,1.71,0,0,1,1091.64,115.84Z"/><path class="cls-291" d="M1087.44,156.85c-1.95.12-2.47-1.95-3.59-3.11l1.69-5,1.27.18C1090.2,151.23,1086.56,154.29,1087.44,156.85Z"/><path class="cls-292" d="M1090.75,117l-1,.85c-.77,1.49-1.89,1.31-3.06.84l-.36.06a1.69,1.69,0,0,1,.6-1.84,3.85,3.85,0,0,1,2.33-1A1.55,1.55,0,0,1,1090.75,117Z"/><path class="cls-293" d="M1237.61,110.74q0,.5,0,1a2.31,2.31,0,0,1-1.11.9,3.74,3.74,0,0,1-2.07,0c-1.7-.52-2-2.11-2.13-3.8a4.57,4.57,0,0,1,.92-3c.28-.8.68-1.44,1.48-1.59a1.06,1.06,0,0,1,1.24.74,2.42,2.42,0,0,1,.14.71,4.57,4.57,0,0,1,.7,2.13A5.22,5.22,0,0,0,1237,110,3.69,3.69,0,0,0,1237.61,110.74Z"/><path class="cls-294" d="M1159.89,71.77c.34-1.5-.59-2.6-.94-3.88a1.85,1.85,0,0,1,.89-1.47,2,2,0,0,1,1.08,0,4.76,4.76,0,0,1,1.44.91,4.58,4.58,0,0,1,1.31,2.71l-.11,1.76a.64.64,0,0,0-.31.74c-.57,1.17-1.08,2.56-2.49,1Z"/><path class="cls-295" d="M1233.21,105.87l0,2.76c-.48.69-.24,1.69-.76,2.37a.92.92,0,0,1-1-.31L1230,106Z"/><path class="cls-183" d="M1241,82.82c-1.22,0-1.68-.88-1.75-2.15a4.34,4.34,0,0,1,.22-.89C1241.77,79.6,1242.12,80.72,1241,82.82Z"/><path class="cls-296" d="M1219.42,72.85l-.83,0-.87.08c-2.11-.49-1.14-2.35-1.24-3.73q.41-.86,1.11-.31l.83,1a2.44,2.44,0,0,1,1.38,1.85A1.58,1.58,0,0,1,1219.42,72.85Z"/><path class="cls-254" d="M1215.15,70.68c-1.28,0-1.62,1.55-2.54,2.15-.28-2.32,1.75-2.71,2.56-4.13a.69.69,0,0,1,1.06.05,1.65,1.65,0,0,1-.27,1.9l-.41-.12Z"/><path class="cls-225" d="M1235.93,105l-1.24-.74c-1.32-1.87,1.1-1.35,1.13-2.36a2,2,0,0,1,2.07.9C1237.77,104.17,1236.35,104,1235.93,105Z"/><path class="cls-297" d="M1163.68,70c-1.25-.15-1.22-1.79-2.1-2.38-.85-1.28-.28-2.24.52-3.15a2.89,2.89,0,0,1,1.15-.5c2.6.06,2.33,1.84,1.72,3.83l-.82,2-.21.2Z"/><path class="cls-298" d="M1170.22,220.76l.87,1c-1.34-.23-3.16.67-3.46-2h0C1168.76,219.2,1169.4,220.28,1170.22,220.76Z"/><path class="cls-299" d="M1170.22,220.76l-2.57-1a2.16,2.16,0,0,1,.83-2Z"/><path class="cls-9" d="M1238.45,132.91c-.74-1.47.75-2,.95-3.14l2.36,0,.24,1.87a2.53,2.53,0,0,1-1.1,2.26Z"/><path class="cls-300" d="M1231,114l-1.16-.34a1.57,1.57,0,0,0-.32-.91c.21-1.23,1.07-1.65,1.93-2.09l.88.12c1,1.09.47,2-.23,2.92A1.3,1.3,0,0,1,1231,114Z"/><path class="cls-181" d="M1172.18,216.79c.34-1.5,1.25-2.13,2.5-1.89.89.17.89,1.08.79,1.92a2,2,0,0,0-2.63,0Z"/><path class="cls-301" d="M1219.42,72.85a5.69,5.69,0,0,0,.11-.89c.29-1.49,1.86-1.16,2.41-2.27l.12,0c.83-.34,1.09.16,1.11,1l-.28,1.92C1221.76,73.63,1220.66,74.93,1219.42,72.85Z"/><path class="cls-302" d="M1223.17,70.75l-1.11-1,.83-1.18c1,.36,1.85-.32,2.71-.8a3.07,3.07,0,0,1,.76.11l.12,1.64-1,1.17Z"/><path class="cls-303" d="M1160,66.52,1159,67.89c-1.23-.45-3.26,1.15-3.51-1.83l1-.4a4.27,4.27,0,0,1,1.12-.7C1158.65,64.85,1159.72,64.87,1160,66.52Z"/><path class="cls-304" d="M1140.06,75.52l-2.67-.94c.27-1.28-2-3.37.89-3.82.21-.47.45-.47.71-.05,1.26.68,3.15-1.5,3.74.31C1143.46,73.23,1140.67,73.73,1140.06,75.52Z"/><path class="cls-305" d="M1139,70.71a2.87,2.87,0,0,0-.71.05c-.45-.73-1.23-1.41-.54-2.42.18-.27.91-.45,1-.29A3.11,3.11,0,0,1,1139,70.71Z"/><path class="cls-306" d="M1156.8,57.78a1.16,1.16,0,0,0,.49.11c.73.8,1.87,0,2.58.88h0a1.83,1.83,0,0,1,.47,1.25,1.9,1.9,0,0,1-.66,1.15c-1.23.49-1.94-.31-2.54-1.39A1.46,1.46,0,0,1,1156.8,57.78Z"/><path class="cls-307" d="M1157.13,59.78l2.69,1q.64-.54,1.07.23a1.82,1.82,0,0,1-1.22,1.63,2.89,2.89,0,0,1-3.16-.73l-.16-.18Z"/><path class="cls-308" d="M1156.52,61.88l3.3-.08a1.72,1.72,0,0,1,1.06,2.08c-.91,1.38-2.49,1-3.61,1.79h-.86Z"/><path class="cls-309" d="M1165,67.82c-.75-.87.61-3.3-1.67-3,0-2.24,1.08-2.46,2.59-2,1,0,2-.14,2.68,1.08Z"/><path class="cls-310" d="M1203,215.67c1.11-1,1.67-.58,1.84.91C1203.62,218,1203.46,216.44,1203,215.67Z"/><path class="cls-311" d="M1105.43,67.79a2.42,2.42,0,0,1-1.1,2.23l-1.51.09-1.59-.38c-.31-1.76,1.8-2.22,1.58-3.94h1.74l.87,1a.64.64,0,0,1,.23.67Q1105.54,67.79,1105.43,67.79Z"/><path class="cls-169" d="M1152.08,215.73l1.59-1q.54-.75,1,0l.81,1C1154.38,217.33,1153.23,217.74,1152.08,215.73Z"/><path class="cls-312" d="M1240.2,108.7a2,2,0,0,1-2.59.09.8.8,0,0,1-1.06-.23,2.84,2.84,0,0,1,.2-2.61l3.45-1C1240.14,106.21,1239.39,107.45,1240.2,108.7Z"/><path class="cls-313" d="M1236.75,105.95v2.75l-.39.43-.45-.35q.09-1.53.19-3.07A1,1,0,0,1,1236.75,105.95Z"/><path class="cls-236" d="M1101.92,216.58c-.84,1.65-2.47,1.43-3.73,2.08C1098.4,215.47,1100.56,217,1101.92,216.58Z"/><path class="cls-314" d="M1235,122.79l.79-1.25a3.84,3.84,0,0,1,2.83.32,2.22,2.22,0,0,0-.11.78l-.78,2.1Z"/><path class="cls-315" d="M1240.23,120.69a4.22,4.22,0,0,1-.73,0c-1-.16-1.44-.94-1.73-1.92a6,6,0,0,1-.1-1.49,2.71,2.71,0,0,1,.92-1.89c2.62-.62,1.7,2.08,2.32,3.32Z"/><path class="cls-316" d="M1240.92,118.76c-1-.83-.54-3.15-2.42-3a.87.87,0,0,1,0-1c1,.06,2.08-.07,2.65,1.23Z"/><path class="cls-317" d="M1238.34,118.9l1.17,1.83-.87,1.13a2.21,2.21,0,0,1-2.83-.32c.34-1.8-.35-2.13-1.67-1.58-3.31.59-2.81-1.76-2.35-4.08a.7.7,0,0,1,1,0c.63.78,1.25,1.6,2.26,1.72A7.45,7.45,0,0,1,1238.34,118.9Z"/><path class="cls-318" d="M1092.39,217.2c.72-.47,1.43-.79,1.88.41l-.1,1.15C1092.52,219.86,1092.46,218.53,1092.39,217.2Z"/><path class="cls-319" d="M1105.43,67.79v-1l1.69-2,.91,1q0,.49,0,1a1.24,1.24,0,0,1-.13,1.85Z"/><path class="cls-320" d="M1221.94,69.69a3.08,3.08,0,0,1-2.41,2.27l-1.11-2.1C1219.56,68.94,1220.76,69.54,1221.94,69.69Z"/><path class="cls-321" d="M1216.56,69l-.22-.07-1.18-.18a6.43,6.43,0,0,0-.15-.86l1.09-.19c.63.18,1.3.28,1.48,1.2Z"/><path class="cls-322" d="M1165.9,62.78l-2.59,2h-.85c-2.13-.59-.58-1.85-.38-2.86,1.23-1.29,2.52-.91,3.81-.16Z"/><path class="cls-323" d="M1165.89,61.77c-1.19.13-2.54-.45-3.46,1-1.3.36-1.28-.59-1.19-1.6a1.78,1.78,0,0,1,1.24-1.41l.95-.1,2.47,1Z"/><path class="cls-324" d="M1162.48,59.75l-.88,1-.39-.49a2.58,2.58,0,0,1-.14-1.29,2.78,2.78,0,0,1,.52-1.16l.09-.07Z"/><path class="cls-325" d="M1238.52,114.75l0,1-.08,2.13c-1.11.21-1.8-.44-2.29-1.5a4.71,4.71,0,0,1,.64-4.63,7.17,7.17,0,0,0,.84,0C1238.91,112.34,1239.13,113.37,1238.52,114.75Z"/><path class="cls-326" d="M1236.74,108.7l.87.09q0,1,0,2h-.83a1.41,1.41,0,0,1,0-2Z"/><path class="cls-327" d="M1090.75,117l-1.71-.45c-1-.7-1.12-1.92-1.47-3-.11-.36-.2-.73-.28-1.11s-.19-.73-.27-1.1c0-.19-.06-.38-.09-.57a1.58,1.58,0,0,1,.36-1l1.75,0,0,0c.73.86,2.32,1.06,1.71,3,.6.92,1.68,1.65.88,3.1Z"/><path class="cls-328" d="M1087.29,109.77l0,.91a.83.83,0,0,1-.85.37,2,2,0,0,1-.73-.73l-.11-.55a1.66,1.66,0,0,1,1.72-1Z"/><path class="cls-329" d="M1087.22,117.7l-.91,1.1c-1.27-1.47-.55-3.34-.74-5l.83,0C1087.59,114.85,1088.29,116,1087.22,117.7Z"/><path class="cls-330" d="M1086.44,112.8l-1.74-.06q0-1,0-2h0a.67.67,0,0,1,.88-.27,8.12,8.12,0,0,1,1.1,1.22l0,.58Z"/><path class="cls-331" d="M1087.22,117.7l-.82-3.9,0-1v0a1,1,0,0,1,1.69.11,6.45,6.45,0,0,1,.93,3.72Z"/><path class="cls-332" d="M1085.54,110.79h-.84q0-.49,0-1l.86,0h0a.64.64,0,0,1,.2.68Q1085.66,110.79,1085.54,110.79Z"/><path class="cls-333" d="M1159.87,58.76c-.93,0-1.92.19-2.58-.88l2.55-.13Z"/><path class="cls-334" d="M1161.58,57.83q0,.48,0,1l-.44.36-.41-.41Z"/><path class="cls-335" d="M1159.89,59.78l0-1,.88,0,0,0C1161,59.74,1160.73,60.06,1159.89,59.78Z"/><path class="cls-336" d="M1090.76,112.74l-1.71-3,3.13-.85c.3.58,1.28,1,.44,1.9Z"/><path class="cls-337" d="M1107.92,68.64l.13-1.85a1.71,1.71,0,0,1,1.7.92l-1.21,1A4.7,4.7,0,0,1,1107.92,68.64Z"/><path class="cls-338" d="M1231.55,113.74c.16-1,1.17-1.73.81-2.94,0-.9-.12-1.83.88-2.18.08,1.43-.07,3,1.76,3.16a1.82,1.82,0,0,1,0,2.33A2.31,2.31,0,0,1,1231.55,113.74Z"/><path class="cls-339" d="M1235,113.75q0-1,0-2h1.78l-.1,4.9a.94.94,0,0,1-1.13.16A2.21,2.21,0,0,1,1235,113.75Z"/><path class="cls-340" d="M1236.76,108.78q0,1,0,2a2,2,0,0,1-.89-2Z"/><path class="cls-341" d="M1161.59,60.76a2.17,2.17,0,0,0,.84,2c-.07.68-.93,1.37,0,2l-.87,2.85c-.52.09-.79-.21-.9-.77a2.62,2.62,0,0,1,0-3l-.87-2,.88-1q.44-.59.89,0Z"/><path class="cls-342" d="M1160.69,63.83q0,1.52,0,3a3.93,3.93,0,0,0-.67-.35c-.66-1.4-1.87-.41-2.75-.85A4.71,4.71,0,0,1,1160.69,63.83Z"/><path class="cls-343" d="M1235,113.75l1,3.26a1,1,0,0,1-1,1.21c-1.33,0-1.71-1.47-2.53-2.25a1.32,1.32,0,0,0-.71-.1A1.56,1.56,0,0,1,1231,114a1.77,1.77,0,0,1,.52-.28Z"/><path class="cls-344" d="M1161.59,60.77h-.89l-.88,0q0-.49.06-1l.84-1,.87,0Q1161.59,59.78,1161.59,60.77Z"/><path class="cls-345" d="M1235.06,117.9l.91-.89a1,1,0,0,0,.7-.34l1.75,1.23a4.26,4.26,0,0,1-.08,1c-1.17.87-2.25-.18-3.37-.24q-.4-.32-.23-.56A.42.42,0,0,1,1235.06,117.9Z"/><path class="cls-346" d="M1235.06,117.9q0,.38-.09.77c-1.94.48-2.72-.47-2.48-2.69C1234.25,115,1233.93,117.76,1235.06,117.9Z"/><path class="cls-332" d="M1088.12,112.87l-1.69-.11q0-.48,0-1a.68.68,0,0,1-.22-.71q.12-.35.24-.35a6,6,0,0,0,.83-.07l.06.12q.4.5.84,1Z"/><path class="cls-347" d="M1088.15,111.77l-.84-1Z"/><path class="cls-268" d="M1086.42,110.75l0,1.06-.85-1,0-1Z"/></g></g></svg>